<svg width="38" height="36" viewBox="0 0 38 36" fill="none" xmlns="http://www.w3.org/2000/svg">
<path d="M26.0439 10.9563H32.2951C32.5289 10.9547 32.7578 11.0286 32.9516 11.1683C33.1454 11.3079 33.2951 11.5069 33.3809 11.7389L35.4353 17.2172" stroke="#E1B168" stroke-width="2" stroke-linecap="round" stroke-linejoin="round"/>
<path d="M2.56543 20.3477H26.0438" stroke="#E1B168" stroke-width="2" stroke-linecap="round" stroke-linejoin="round"/>
<path d="M28.0003 30.5215C29.9453 30.5215 31.522 28.9448 31.522 26.9998C31.522 25.0548 29.9453 23.478 28.0003 23.478C26.0553 23.478 24.4785 25.0548 24.4785 26.9998C24.4785 28.9448 26.0553 30.5215 28.0003 30.5215Z" stroke="#E1B168" stroke-width="2" stroke-linecap="round" stroke-linejoin="round"/>
<path d="M10.0003 30.5215C11.9453 30.5215 13.522 28.9448 13.522 26.9998C13.522 25.0548 11.9453 23.478 10.0003 23.478C8.05526 23.478 6.47852 25.0548 6.47852 26.9998C6.47852 28.9448 8.05526 30.5215 10.0003 30.5215Z" stroke="#E1B168" stroke-width="2" stroke-linecap="round" stroke-linejoin="round"/>
<path d="M24.479 26.6084H13.5225" stroke="#E1B168" stroke-width="2" stroke-linecap="round" stroke-linejoin="round"/>
<path d="M6.08718 26.6087H3.73935C3.42801 26.6087 3.12941 26.4902 2.90926 26.2792C2.68911 26.0682 2.56543 25.7821 2.56543 25.4837V9.73365C2.56543 9.43528 2.68911 9.14913 2.90926 8.93815C3.12941 8.72717 3.42801 8.60864 3.73935 8.60864H26.0438V23.6837" stroke="#E1B168" stroke-width="2" stroke-linecap="round" stroke-linejoin="round"/>
<path d="M26.0439 17.217H35.4353V25.5649C35.4353 25.8417 35.3116 26.1071 35.0915 26.3028C34.8713 26.4985 34.5727 26.6084 34.2614 26.6084H32.3048" stroke="#E1B168" stroke-width="2" stroke-linecap="round" stroke-linejoin="round"/>
</svg>
