<svg width="37" height="31" viewBox="0 0 37 31" fill="none" xmlns="http://www.w3.org/2000/svg">
<path d="M9.75 5.83333H8.75C8.75 6.38562 9.19772 6.83333 9.75 6.83333V5.83333ZM12.25 1L12.25 0L12.25 1ZM24.75 1V0V1ZM27.25 5.83333V6.83333C27.8023 6.83333 28.25 6.38562 28.25 5.83333H27.25ZM36 15.2917C36.5523 15.2917 37 14.844 37 14.2917C37 13.7394 36.5523 13.2917 36 13.2917V15.2917ZM1 13.2917C0.447715 13.2917 0 13.7394 0 14.2917C0 14.844 0.447715 15.2917 1 15.2917V13.2917ZM24.5 14.2917C24.5 13.7394 24.0523 13.2917 23.5 13.2917C22.9477 13.2917 22.5 13.7394 22.5 14.2917H24.5ZM14.5 14.2917C14.5 13.7394 14.0523 13.2917 13.5 13.2917C12.9477 13.2917 12.5 13.7394 12.5 14.2917H14.5ZM4.75 6.83333H32.25V4.83333H4.75V6.83333ZM32.25 6.83333C33.801 6.83333 35 8.04027 35 9.45833H37C37 6.87233 34.8411 4.83333 32.25 4.83333V6.83333ZM35 9.45833V26.375H37V9.45833H35ZM35 26.375C35 27.7931 33.801 29 32.25 29V31C34.8411 31 37 28.961 37 26.375H35ZM32.25 29H4.75V31H32.25V29ZM4.75 29C3.19899 29 2 27.7931 2 26.375H0C0 28.961 2.15887 31 4.75 31V29ZM2 26.375V9.45833H0V26.375H2ZM2 9.45833C2 8.04027 3.19899 6.83333 4.75 6.83333V4.83333C2.15887 4.83333 0 6.87233 0 9.45833H2ZM10.75 5.83333V3.41667H8.75V5.83333H10.75ZM10.75 3.41667C10.75 3.05209 10.8995 2.69531 11.1773 2.42681L9.78721 0.988837C9.12728 1.62677 8.75 2.49936 8.75 3.41667H10.75ZM11.1773 2.42681C11.4562 2.15721 11.8414 2 12.25 2L12.25 0C11.3325 0 10.446 0.352018 9.78721 0.988837L11.1773 2.42681ZM12.25 2H24.75V0H12.25V2ZM24.75 2C25.1586 2 25.5438 2.15721 25.8227 2.42681L27.2128 0.988837C26.554 0.352018 25.6675 0 24.75 0V2ZM25.8227 2.42681C26.1005 2.69531 26.25 3.05209 26.25 3.41667H28.25C28.25 2.49936 27.8727 1.62677 27.2128 0.988837L25.8227 2.42681ZM26.25 3.41667V5.83333H28.25V3.41667H26.25ZM27.25 4.83333H9.75V6.83333H27.25V4.83333ZM36 13.2917H1V15.2917H36V13.2917ZM22.5 14.2917V16.1042H24.5V14.2917H22.5ZM22.5 16.1042C22.5 15.988 22.548 15.8838 22.6219 15.8124L24.012 17.2504C24.3203 16.9523 24.5 16.5408 24.5 16.1042H22.5ZM22.6219 15.8124C22.6946 15.7421 22.7863 15.7083 22.875 15.7083V17.7083C23.2952 17.7083 23.7048 17.5473 24.012 17.2504L22.6219 15.8124ZM22.875 15.7083H14.125V17.7083H22.875V15.7083ZM14.125 15.7083C14.2137 15.7083 14.3054 15.7421 14.3781 15.8124L12.988 17.2504C13.2952 17.5473 13.7048 17.7083 14.125 17.7083V15.7083ZM14.3781 15.8124C14.452 15.8838 14.5 15.988 14.5 16.1042H12.5C12.5 16.5408 12.6797 16.9523 12.988 17.2504L14.3781 15.8124ZM14.5 16.1042V14.2917H12.5V16.1042H14.5Z" fill="white"/>
</svg>
