<svg width="27" height="28" viewBox="0 0 27 28" fill="none" xmlns="http://www.w3.org/2000/svg">
<path d="M21.4952 22.2319H5.25391" stroke="#E1B168" stroke-width="1.2" stroke-miterlimit="10" stroke-linecap="round"/>
<path d="M5.17578 15.5918V26.4608H21.4917V15.5918" stroke="#E1B168" stroke-width="1.2" stroke-miterlimit="10" stroke-linecap="round"/>
<path d="M20.1743 15.144C20.3857 15.1689 20.6096 15.1937 20.8334 15.1937C23.6812 15.1937 25.9943 12.8931 25.9943 10.0701C25.9943 7.23472 23.6812 4.94651 20.8334 4.94651C20.5101 4.94651 20.1867 4.98382 19.8758 5.046C18.5576 2.94432 16.2197 1.53906 13.5335 1.53906C10.8598 1.53906 8.52183 2.94433 7.20362 5.03356C6.94247 4.99625 6.68131 4.95895 6.39529 4.95895C3.54746 4.95895 1.23438 7.25959 1.23438 10.0825C1.23438 12.9179 3.54746 15.2062 6.39529 15.2062" stroke="#E1B168" stroke-width="1.2" stroke-miterlimit="10" stroke-linecap="round"/>
<path d="M9.28125 17.6311V19.9069" stroke="#E1B168" stroke-width="1.2" stroke-miterlimit="10" stroke-linecap="round"/>
<path d="M17.0273 17.6311V19.9069" stroke="#E1B168" stroke-width="1.2" stroke-miterlimit="10" stroke-linecap="round"/>
<path d="M13.1406 17.6311V19.9069" stroke="#E1B168" stroke-width="1.2" stroke-miterlimit="10" stroke-linecap="round"/>
</svg>
