<svg width="27" height="28" viewBox="0 0 27 28" fill="none" xmlns="http://www.w3.org/2000/svg">
<path d="M12.2647 12.7456L20.6466 2.83412C21.8528 1.40399 23.967 1.19258 25.4344 2.33668L5.53689 25.8903C4.95241 26.5743 3.93266 26.6862 3.22381 26.1266C2.58958 25.3556 2.81342 24.5721 3.42279 23.8509L9.01896 17.2349C9.25524 16.9489 9.62832 16.8121 10.0014 16.8743L9.60345 16.7624C10.1133 16.8494 10.6356 16.6629 10.9714 16.2649L11.7424 15.3447C12.0409 14.984 12.1528 14.5115 12.0533 14.0638L12.0036 13.8648C11.9041 13.4668 12.0036 13.0565 12.2647 12.7456Z" stroke="#E1B168" stroke-width="1.2" stroke-miterlimit="10" stroke-linecap="round"/>
<path d="M16.0884 14.5239L25.6516 24.2861C26.0371 24.6716 25.9003 25.4178 25.3531 25.9525C24.806 26.4873 24.0598 26.6116 23.6743 26.2137L14.2852 16.6256" stroke="#E1B168" stroke-width="1.2" stroke-miterlimit="10" stroke-linecap="round"/>
<path d="M11.7988 14.1012L8.98828 11.2036" stroke="#E1B168" stroke-width="1.2" stroke-miterlimit="10" stroke-linecap="round"/>
<path d="M10.9648 9.27637L13.0665 11.4527" stroke="#E1B168" stroke-width="1.2" stroke-miterlimit="10" stroke-linecap="round"/>
<path d="M6.90711 8.50515L2.82812 4.33911" stroke="#E1B168" stroke-miterlimit="10" stroke-linecap="round"/>
<path d="M4.20312 2.9834L8.28211 7.14944" stroke="#E1B168" stroke-miterlimit="10" stroke-linecap="round"/>
<path d="M5.2806 1.51611L9.84459 6.17959C10.8146 7.16203 10.7151 8.82844 9.63318 9.88549C8.55125 10.9425 6.88484 11.0047 5.92727 10.0223L1.36328 5.34637" stroke="#E1B168" stroke-width="1.2" stroke-miterlimit="10" stroke-linecap="round"/>
</svg>
