<svg width="227" height="56" viewBox="0 0 227 56" fill="none" xmlns="http://www.w3.org/2000/svg">
<path d="M76.8722 48.7448C76.8722 28.1348 60.1622 11.4248 39.5522 11.4248C18.9422 11.4248 2.24219 28.1348 2.24219 48.7448H76.8722Z" fill="#FF441F"/>
<path d="M44.836 7.89256C45.5239 4.9794 43.72 2.06018 40.8068 1.3723C37.8936 0.684418 34.9744 2.48837 34.2865 5.40153C33.5987 8.31469 35.4026 11.2339 38.3158 11.9218C41.2289 12.6097 44.1481 10.8057 44.836 7.89256Z" fill="#FF441F"/>
<path d="M8.62109 41.4145C8.81109 38.1545 9.85109 34.9645 11.2911 31.9945C12.7511 29.0245 14.7211 26.2945 17.1011 23.9545C19.4711 21.6045 22.2711 19.7045 25.2811 18.3145C28.3011 16.9645 31.5211 16.0945 34.7711 15.8945C31.7611 17.1345 28.8911 18.4645 26.2211 20.0845C23.5611 21.7145 21.0911 23.6045 18.8911 25.7645C16.6911 27.9245 14.7311 30.3445 13.0311 32.9745C12.1811 34.2845 11.3711 35.6345 10.6511 37.0545C9.90109 38.4545 9.24109 39.9045 8.62109 41.4145Z" fill="white"/>
<path d="M85.6115 26.5249C85.9915 26.5249 87.1715 26.7849 89.1415 27.3149C89.5915 23.4149 90.8715 19.1749 92.9615 14.6049C93.7015 12.9349 94.5815 12.1049 95.6015 12.1049C95.7915 12.1049 95.9815 12.3049 96.1515 12.7149C96.3315 13.1149 96.4215 13.6149 96.4215 14.2149C96.4215 14.9249 96.0415 16.8949 95.3015 20.1049C94.5515 23.3149 94.0615 26.1149 93.8215 28.4949C95.3915 28.8549 96.7815 29.0349 97.9815 29.0349C99.1815 29.0349 100.281 28.7149 101.281 28.0849C102.281 27.4549 103.141 26.6349 103.851 25.6349C105.331 23.5149 106.061 20.9749 106.061 17.9949C106.041 12.4949 103.851 9.74486 99.4915 9.74486C97.9415 9.76486 95.2115 10.4549 91.2815 11.8149C90.5215 12.0749 89.8515 12.2049 89.2815 12.2049C88.7115 12.2049 88.4215 12.0349 88.4215 11.7049C88.4215 11.2549 88.7515 10.7149 89.4215 10.0949C90.0915 9.47486 90.9415 8.88486 91.9915 8.30486C94.5615 6.92486 97.0615 6.23486 99.4915 6.23486C102.821 6.23486 105.561 7.12486 107.701 8.91486C110.221 11.0349 111.471 14.2449 111.451 18.5549C111.451 20.3849 111.161 22.1949 110.591 23.9849C110.021 25.7749 109.151 27.3549 107.981 28.7549C106.811 30.1449 105.341 31.2749 103.551 32.1249C101.761 32.9849 99.6615 33.4149 97.2315 33.4149C96.2515 33.4149 95.0215 33.2049 93.5215 32.7749C93.3515 33.2249 92.9415 33.4549 92.2715 33.4549C91.0315 33.4549 90.1915 33.2449 89.7515 32.8349C89.3115 32.4249 89.0515 31.7349 88.9815 30.7849C87.8415 30.1449 86.8915 29.4749 86.1415 28.7849C85.3915 28.0949 85.0215 27.4849 85.0215 26.9649C85.0415 26.6649 85.2315 26.5249 85.6115 26.5249Z" fill="#FF441F"/>
<path d="M121.381 29.2349C123.241 29.2349 125.031 28.4949 126.771 27.0249C127.411 26.4749 127.941 25.9749 128.341 25.5049C128.741 25.0449 129.051 24.8049 129.271 24.8049C129.601 24.8049 129.771 25.1349 129.771 25.8049C129.771 26.4749 129.591 27.2149 129.231 28.0349C128.871 28.8549 128.281 29.6549 127.441 30.4449C125.391 32.3749 122.591 33.3349 119.011 33.3349C116.181 33.3349 114.251 32.3149 113.231 30.2649C112.871 29.5549 112.691 28.5249 112.691 27.1949C112.691 25.8649 112.951 24.4749 113.481 23.0349C114.001 21.5949 114.701 20.3549 115.571 19.3049C116.441 18.2549 117.441 17.4449 118.591 16.8549C119.731 16.2749 120.951 15.9849 122.251 15.9849C123.551 15.9849 124.551 16.3049 125.251 16.9449C125.951 17.5849 126.301 18.4249 126.301 19.4449C126.301 20.4649 126.041 21.3049 125.531 21.9649C125.021 22.6249 124.361 23.1649 123.551 23.6049C122.741 24.0449 121.841 24.4349 120.851 24.7849C119.861 25.1349 118.891 25.5149 117.941 25.9449V26.8349C117.961 27.6949 118.321 28.2949 119.011 28.6549C119.721 29.0249 120.501 29.2149 121.381 29.2349ZM120.771 19.1649C119.531 19.1649 118.681 20.6049 118.201 23.4849C118.701 23.1549 119.171 22.8549 119.611 22.5949C120.051 22.3349 120.441 22.0849 120.771 21.8449C121.481 21.3249 121.851 20.7249 121.881 20.0549C121.881 19.4649 121.511 19.1649 120.771 19.1649Z" fill="#FF441F"/>
<path d="M135.952 33.2352C132.552 33.2552 130.232 31.9852 128.992 29.4152C128.562 28.5152 128.352 27.3752 128.352 26.0052C128.352 24.6352 128.472 23.1752 128.712 21.6352C129.192 18.5452 130.102 15.6852 131.462 13.0652C132.152 11.7352 132.922 10.5952 133.782 9.63519C135.662 7.54519 137.752 6.50519 140.062 6.52519C141.082 6.52519 141.892 6.80519 142.472 7.36519C143.052 7.92518 143.342 8.72519 143.342 9.77519C143.342 10.8252 143.032 11.8752 142.412 12.9352C141.792 13.9952 141.002 15.0852 140.042 16.2152C139.082 17.3452 138.012 18.5352 136.852 19.7652C135.682 21.0052 134.542 22.3452 133.422 23.7952V25.2252C133.422 26.5552 133.712 27.5352 134.282 28.1552C134.852 28.7752 135.522 29.0852 136.282 29.0852C138.332 29.0852 140.142 28.0752 141.712 26.0552C142.352 25.2252 142.842 24.8052 143.172 24.8052C143.502 24.8052 143.672 25.2152 143.672 26.0152C143.672 26.8252 143.452 27.6552 143.012 28.4952C142.572 29.3352 141.992 30.1152 141.282 30.8152C140.572 31.5152 139.742 32.0952 138.822 32.5452C137.902 32.9952 136.922 33.2352 135.952 33.2352ZM137.872 14.0652C138.372 13.4452 138.762 12.8852 139.052 12.3852C139.342 11.8852 139.482 11.3652 139.482 10.8352C139.482 10.2952 139.292 10.0352 138.912 10.0352C138.082 10.0352 137.152 10.8952 136.142 12.6052C135.132 14.3152 134.372 16.5652 133.872 19.3552C134.682 18.1152 135.422 17.0852 136.102 16.2452C136.782 15.4052 137.372 14.6852 137.872 14.0652Z" fill="#FF441F"/>
<path d="M145.832 33.2349C143.452 33.2349 142.262 31.0049 142.262 26.5549C142.262 24.1249 142.562 21.9249 143.152 19.9549C144.082 16.9049 145.132 15.3849 146.292 15.3849C146.982 15.3849 147.532 15.8449 147.932 16.7749C148.262 17.4849 148.422 18.1949 148.392 18.8849C148.392 19.8349 148.102 21.5149 147.532 23.9149C146.982 26.0049 146.712 27.3049 146.712 27.8049C146.712 28.3049 146.832 28.6449 147.092 28.8449C147.342 29.0349 147.642 29.1349 147.982 29.1349C148.322 29.1349 148.762 28.9049 149.282 28.4549C149.802 28.0049 150.332 27.5049 150.852 26.9749C151.372 26.4349 151.862 25.9449 152.302 25.4949C152.742 25.0449 153.042 24.8149 153.212 24.8149C153.542 24.8149 153.712 25.2249 153.712 26.0249C153.712 27.6949 152.872 29.3149 151.192 30.8949C149.532 32.4749 147.742 33.2549 145.832 33.2349ZM147.302 12.4949C146.662 11.5449 146.332 10.5149 146.332 9.42494C146.332 8.33494 146.502 7.42494 146.852 6.69494C147.192 5.96494 147.522 5.43494 147.832 5.08494C148.142 4.74494 148.502 4.56494 148.902 4.56494C149.572 4.56494 150.172 5.05494 150.722 6.04494C151.272 7.03494 151.542 7.85494 151.542 8.52494C151.542 9.76494 151.112 10.7349 150.242 11.4349C149.372 12.1449 148.392 12.4949 147.302 12.4949Z" fill="#FF441F"/>
<path d="M166.112 24.7051C166.542 24.7051 166.752 25.0651 166.752 25.7951C166.752 26.5251 166.572 27.2951 166.202 28.1351C165.832 28.9651 165.272 29.7751 164.522 30.5451C163.772 31.3151 162.812 31.9751 161.652 32.5251C160.482 33.0751 159.112 33.3451 157.532 33.3451C155.952 33.3451 154.562 32.8751 153.372 31.9351C152.182 30.9951 151.582 29.6351 151.582 27.8651C151.582 26.0951 151.862 24.4851 152.422 23.0451C152.982 21.6051 153.722 20.3651 154.632 19.3151C155.552 18.2651 156.592 17.4551 157.752 16.8651C158.922 16.2851 160.022 15.9951 161.072 15.9951C162.902 15.9951 163.822 16.7251 163.822 18.1751C163.822 19.0051 163.652 19.6751 163.302 20.1751C162.952 20.6751 162.602 20.9251 162.252 20.9251C161.772 20.9251 161.362 20.7551 161.002 20.4251C160.642 20.0951 160.252 19.9151 159.822 19.9051C159.392 19.8951 158.982 20.1051 158.592 20.5251C158.202 20.9551 157.872 21.5051 157.612 22.1651C157.092 23.4951 156.822 25.0551 156.822 26.8451C156.842 27.7051 157.242 28.3451 158.002 28.7751C158.522 29.0651 159.142 29.2051 159.862 29.2251C160.572 29.2351 161.262 29.0051 161.912 28.5251C162.562 28.0451 163.162 27.5351 163.712 26.9751C164.262 26.4151 164.742 25.8951 165.162 25.4251C165.582 24.9451 165.902 24.7051 166.112 24.7051Z" fill="#FF441F"/>
<path d="M169.252 33.2349C166.872 33.2349 165.682 31.0049 165.682 26.5549C165.682 24.1249 165.982 21.9249 166.572 19.9549C167.502 16.9049 168.552 15.3849 169.712 15.3849C170.402 15.3849 170.952 15.8449 171.352 16.7749C171.682 17.4849 171.842 18.1949 171.812 18.8849C171.812 19.8349 171.522 21.5149 170.952 23.9149C170.402 26.0049 170.132 27.3049 170.132 27.8049C170.132 28.3049 170.252 28.6449 170.512 28.8449C170.762 29.0349 171.062 29.1349 171.402 29.1349C171.742 29.1349 172.182 28.9049 172.702 28.4549C173.222 28.0049 173.752 27.5049 174.272 26.9749C174.792 26.4349 175.282 25.9449 175.722 25.4949C176.162 25.0449 176.462 24.8149 176.632 24.8149C176.962 24.8149 177.132 25.2249 177.132 26.0249C177.132 27.6949 176.292 29.3149 174.612 30.8949C172.952 32.4749 171.162 33.2549 169.252 33.2349ZM170.722 12.4949C170.082 11.5449 169.762 10.5249 169.762 9.42494C169.762 8.33494 169.932 7.42494 170.282 6.69494C170.622 5.96494 170.952 5.43494 171.262 5.08494C171.572 4.74494 171.932 4.56494 172.332 4.56494C173.002 4.56494 173.602 5.05494 174.152 6.04494C174.702 7.03494 174.972 7.85494 174.972 8.52494C174.972 9.76494 174.542 10.7349 173.672 11.4349C172.792 12.1449 171.812 12.4949 170.722 12.4949Z" fill="#FF441F"/>
<path d="M189.782 30.0949C187.902 32.3049 185.642 33.4149 183.012 33.4149C180.382 33.4149 178.412 32.7449 177.102 31.3949C175.792 30.0549 175.152 28.3749 175.172 26.3749C175.152 23.5449 176.042 21.1049 177.852 19.0549C179.662 17.0049 182.032 15.9849 184.952 15.9849C186.282 15.9849 187.352 16.1549 188.162 16.4849C189.562 17.0549 190.272 17.5949 190.272 18.0949C190.272 18.4749 189.292 18.6749 187.322 18.6849C185.352 18.6949 183.712 19.3749 182.392 20.7249C181.072 22.0649 180.412 23.7649 180.412 25.8149C180.412 26.8849 180.722 27.7849 181.362 28.5149C181.992 29.2449 182.882 29.6049 184.042 29.6049C185.192 29.6049 186.152 29.3649 186.912 28.8949C185.222 27.7549 184.382 26.0949 184.382 23.9349C184.362 22.7949 184.772 21.7549 185.612 20.8149C186.452 19.8749 187.542 19.3949 188.862 19.3849C190.182 19.3749 191.132 19.7349 191.702 20.4749C192.272 21.2149 192.562 22.1549 192.562 23.3149C192.562 24.4749 192.292 25.6849 191.742 26.9749H191.952C193.002 26.9549 193.902 26.5849 194.662 25.8649C194.952 25.5749 195.192 25.3249 195.392 25.1149C195.592 24.9049 195.802 24.7949 196.012 24.7949C196.342 24.7949 196.512 25.1849 196.512 25.9749C196.512 27.4249 196.082 28.5149 195.222 29.2449C194.362 29.9749 193.422 30.3349 192.382 30.3349C191.342 30.3349 190.492 30.2349 189.782 30.0949ZM189.462 25.9549C189.862 25.0949 190.072 24.2649 190.072 23.4549C190.072 22.6449 189.812 22.2449 189.282 22.2449C189.072 22.2449 188.892 22.4049 188.742 22.7049C188.602 23.0149 188.532 23.3149 188.532 23.5949C188.532 24.5449 188.842 25.3349 189.462 25.9549Z" fill="#FF441F"/>
<path d="M205.841 18.0648C205.841 16.4748 207.081 15.6748 209.551 15.6748C210.171 15.6748 210.561 15.8748 210.711 16.2848C210.861 16.6948 210.941 17.3048 210.941 18.1448C210.941 19.3148 210.681 21.1248 210.151 23.5748C209.621 26.0248 209.381 27.6848 209.401 28.5348C209.401 28.9448 209.531 29.1448 209.791 29.1448C210.151 29.1448 210.591 28.9148 211.111 28.4648C211.631 28.0148 212.161 27.5148 212.681 26.9848C213.201 26.4548 213.691 25.9548 214.131 25.5048C214.571 25.0548 214.871 24.8248 215.041 24.8248C215.371 24.8248 215.541 25.2348 215.541 26.0348C215.541 27.7048 214.721 29.3048 213.081 30.8548C210.321 32.4748 208.571 33.2848 207.831 33.2848C207.761 33.2848 207.701 33.2748 207.651 33.2448C206.751 33.2448 206.111 32.9448 205.741 32.3548C205.371 31.7648 205.141 31.0148 205.041 30.1048C204.561 30.9848 203.911 31.7448 203.081 32.3748C202.251 33.0048 201.291 33.3248 200.221 33.3248C198.341 33.3248 196.891 32.9648 195.881 32.2548C194.871 31.5448 194.361 30.4848 194.361 29.0748C194.361 28.4548 194.451 27.8848 194.631 27.3648C194.811 26.8448 195.101 26.1948 195.501 25.4348L196.541 16.6548C197.281 16.0848 198.341 15.7948 199.721 15.7948C200.811 15.7948 201.431 16.5048 201.581 17.9348C201.701 19.1048 201.651 20.1448 201.421 21.0548C201.191 21.9748 200.891 23.1248 200.511 24.5148C200.131 25.9048 199.941 27.1348 199.941 28.2048C199.941 29.0648 200.481 29.4948 201.551 29.4948C202.721 29.4948 203.731 28.4748 204.581 26.4248C205.251 24.8548 205.701 23.1048 205.941 21.1748C205.921 20.9848 205.901 20.7448 205.891 20.4448C205.881 20.1448 205.871 19.8548 205.851 19.5648C205.841 19.2748 205.831 18.9948 205.831 18.7048V18.0648H205.841Z" fill="#FF441F"/>
<path d="M221.912 15.8352C223.502 15.8252 224.692 16.1252 225.482 16.7252C226.272 17.3352 226.662 18.2052 226.662 19.3352C226.662 20.4652 226.322 21.4252 225.642 22.2252C224.962 23.0252 224.132 23.5852 223.162 23.9252C223.852 24.6352 224.472 25.3652 225.032 26.1052C225.592 26.8452 225.872 27.6152 225.872 28.4252C225.872 30.0152 225.242 31.2552 223.982 32.1152C222.722 32.9852 220.962 33.4152 218.712 33.4152C216.462 33.4152 214.782 32.9652 213.662 32.0752C212.542 31.1852 211.982 30.1752 211.982 29.0352C211.982 27.9052 212.262 26.8752 212.822 25.9452C213.382 25.0152 213.982 24.5552 214.622 24.5552C215.002 24.5552 215.272 24.6952 215.442 24.9652C215.612 25.2352 215.922 26.0352 216.372 27.3352C216.542 27.8152 216.812 28.2652 217.192 28.6952C218.072 29.6752 219.462 30.1552 221.372 30.1552C221.082 29.2552 220.632 28.4752 220.002 27.8152C219.372 27.1652 218.742 26.5252 218.132 25.9052C217.512 25.2852 216.962 24.6252 216.492 23.9252C216.012 23.2252 215.782 22.3952 215.782 21.4452C215.782 19.7352 216.422 18.3352 217.712 17.2652C218.912 16.3252 220.312 15.8452 221.912 15.8352ZM221.772 22.4552C222.722 21.4352 223.202 20.6152 223.202 19.9952C223.202 19.7052 223.102 19.4552 222.902 19.2252C222.702 18.9952 222.412 18.8852 222.032 18.8852C221.652 18.8852 221.292 18.9352 220.942 19.0252C220.592 19.1252 220.322 19.1952 220.102 19.2352C220.092 20.1452 220.652 21.2152 221.772 22.4552Z" fill="#FF441F"/>
<path d="M89.7223 45.3747V48.3547H94.4523V49.8947H89.7223V53.6447H87.9023V43.8447H95.0523V45.3747H89.7223Z" fill="#06C167"/>
<path d="M99.9823 53.1351C99.1823 52.7051 98.5523 52.0951 98.0923 51.3251C97.6323 50.5551 97.4023 49.6951 97.4023 48.7451C97.4023 47.7951 97.6323 46.9351 98.0923 46.1651C98.5523 45.3951 99.1823 44.7951 99.9823 44.3551C100.782 43.9151 101.682 43.7051 102.682 43.7051C103.682 43.7051 104.582 43.9251 105.382 44.3551C106.182 44.7851 106.812 45.3851 107.272 46.1551C107.732 46.9251 107.962 47.7851 107.962 48.7451C107.962 49.7051 107.732 50.5751 107.272 51.3351C106.812 52.0951 106.182 52.6951 105.382 53.1351C104.582 53.5651 103.682 53.7851 102.682 53.7851C101.682 53.7851 100.782 53.5651 99.9823 53.1351ZM104.442 51.7451C104.962 51.4551 105.372 51.0451 105.672 50.5151C105.972 49.9851 106.122 49.3951 106.122 48.7451C106.122 48.0951 105.972 47.5051 105.672 46.9751C105.372 46.4451 104.962 46.0351 104.442 45.7451C103.922 45.4551 103.332 45.3051 102.682 45.3051C102.032 45.3051 101.442 45.4551 100.922 45.7451C100.402 46.0351 99.9923 46.4551 99.6923 46.9751C99.3923 47.4951 99.2423 48.0951 99.2423 48.7451C99.2423 49.3951 99.3923 49.9851 99.6923 50.5151C99.9923 51.0451 100.402 51.4551 100.922 51.7451C101.442 52.0351 102.032 52.1851 102.682 52.1851C103.332 52.1851 103.922 52.0451 104.442 51.7451Z" fill="#06C167"/>
<path d="M113.172 53.1351C112.372 52.7051 111.742 52.0951 111.282 51.3251C110.822 50.5551 110.592 49.6951 110.592 48.7451C110.592 47.7951 110.822 46.9351 111.282 46.1651C111.742 45.3951 112.372 44.7951 113.172 44.3551C113.972 43.9151 114.872 43.7051 115.872 43.7051C116.872 43.7051 117.772 43.9251 118.572 44.3551C119.372 44.7851 120.002 45.3851 120.462 46.1551C120.922 46.9251 121.152 47.7851 121.152 48.7451C121.152 49.7051 120.922 50.5751 120.462 51.3351C120.002 52.0951 119.372 52.6951 118.572 53.1351C117.772 53.5651 116.872 53.7851 115.872 53.7851C114.872 53.7851 113.972 53.5651 113.172 53.1351ZM117.632 51.7451C118.152 51.4551 118.562 51.0451 118.862 50.5151C119.162 49.9851 119.312 49.3951 119.312 48.7451C119.312 48.0951 119.162 47.5051 118.862 46.9751C118.562 46.4451 118.152 46.0351 117.632 45.7451C117.112 45.4551 116.522 45.3051 115.872 45.3051C115.222 45.3051 114.632 45.4551 114.112 45.7451C113.592 46.0351 113.182 46.4551 112.882 46.9751C112.582 47.4951 112.432 48.0951 112.432 48.7451C112.432 49.3951 112.582 49.9851 112.882 50.5151C113.182 51.0451 113.592 51.4551 114.112 51.7451C114.632 52.0351 115.222 52.1851 115.872 52.1851C116.522 52.1851 117.112 52.0451 117.632 51.7451Z" fill="#06C167"/>
<path d="M124.482 43.8447H128.762C129.802 43.8447 130.732 44.0447 131.552 44.4547C132.362 44.8647 132.992 45.4347 133.442 46.1747C133.892 46.9147 134.112 47.7747 134.112 48.7447C134.112 49.7147 133.892 50.5747 133.442 51.3147C132.992 52.0547 132.362 52.6347 131.552 53.0347C130.742 53.4447 129.812 53.6447 128.762 53.6447H124.482V43.8447ZM128.682 52.1047C129.402 52.1047 130.032 51.9647 130.582 51.6947C131.132 51.4247 131.552 51.0247 131.842 50.5147C132.132 50.0047 132.282 49.4147 132.282 48.7447C132.282 48.0747 132.132 47.4847 131.842 46.9747C131.552 46.4647 131.132 46.0747 130.582 45.7947C130.032 45.5147 129.402 45.3847 128.682 45.3847H126.302V52.1047H128.682Z" fill="#06C167"/>
<path d="M142.703 43.8447H146.983C148.023 43.8447 148.953 44.0447 149.773 44.4547C150.583 44.8647 151.213 45.4347 151.663 46.1747C152.113 46.9147 152.333 47.7747 152.333 48.7447C152.333 49.7147 152.113 50.5747 151.663 51.3147C151.213 52.0547 150.583 52.6347 149.773 53.0347C148.963 53.4447 148.033 53.6447 146.983 53.6447H142.703V43.8447ZM146.903 52.1047C147.623 52.1047 148.253 51.9647 148.803 51.6947C149.353 51.4247 149.773 51.0247 150.063 50.5147C150.353 50.0047 150.503 49.4147 150.503 48.7447C150.503 48.0747 150.353 47.4847 150.063 46.9747C149.773 46.4647 149.353 46.0747 148.803 45.7947C148.253 45.5147 147.623 45.3847 146.903 45.3847H144.523V52.1047H146.903Z" fill="#06C167"/>
<path d="M163.022 52.125V53.655H155.672V43.855H162.822V45.385H157.492V47.935H162.222V49.435H157.492V52.135H163.022V52.125Z" fill="#06C167"/>
<path d="M166.453 43.8447H168.273V52.1047H173.393V53.6447H166.453V43.8447Z" fill="#06C167"/>
<path d="M176.232 43.8447H178.052V53.6447H176.232V43.8447Z" fill="#06C167"/>
<path d="M190.992 43.8447L186.722 53.6447H184.932L180.652 43.8447H182.622L185.882 51.4047L189.172 43.8447H190.992Z" fill="#06C167"/>
<path d="M200.782 52.125V53.655H193.432V43.855H200.582V45.385H195.252V47.935H199.982V49.435H195.252V52.135H200.782V52.125Z" fill="#06C167"/>
<path d="M210.623 53.6447L208.623 50.7747C208.543 50.7847 208.413 50.7847 208.243 50.7847H206.033V53.6447H204.213V43.8447H208.243C209.093 43.8447 209.833 43.9847 210.463 44.2647C211.093 44.5447 211.573 44.9447 211.913 45.4647C212.253 45.9847 212.413 46.6047 212.413 47.3247C212.413 48.0647 212.233 48.6947 211.873 49.2247C211.513 49.7547 210.993 50.1547 210.323 50.4147L212.573 53.6347H210.623V53.6447ZM209.963 45.8947C209.553 45.5547 208.953 45.3947 208.153 45.3947H206.023V49.3047H208.153C208.943 49.3047 209.553 49.1347 209.963 48.7947C210.373 48.4547 210.583 47.9747 210.583 47.3447C210.583 46.7047 210.373 46.2247 209.963 45.8947Z" fill="#06C167"/>
<path d="M219.932 50.1847V53.6447H218.112V50.2147L214.262 43.8447H216.212L219.082 48.6147L221.982 43.8447H223.772L219.932 50.1847Z" fill="#06C167"/>
<path d="M36.6927 8.56461C36.2027 8.07461 35.9627 7.48461 35.8327 6.86461C35.7127 6.24461 35.7327 5.58461 35.9527 4.93461C36.1727 4.29461 36.6127 3.66461 37.2427 3.28461C37.8727 2.90461 38.6327 2.87461 39.2427 3.13461C38.7727 3.65461 38.4527 4.01461 38.2427 4.40461C38.0427 4.78461 37.9127 5.14461 37.7627 5.55461C37.6227 5.96461 37.4927 6.42461 37.3327 6.91461C37.1627 7.41461 36.9827 7.94461 36.6927 8.56461Z" fill="white"/>
<path d="M76.512 55.1247H2.61203C1.35203 55.1247 0.332031 54.1047 0.332031 52.8447V52.6247C0.332031 51.3647 1.35203 50.3447 2.61203 50.3447H76.512C77.772 50.3447 78.792 51.3647 78.792 52.6247V52.8447C78.792 54.1047 77.772 55.1247 76.512 55.1247Z" fill="#FF441F"/>
</svg>
