<svg width="230" height="38" viewBox="0 0 230 38" fill="none" xmlns="http://www.w3.org/2000/svg">
<path d="M10.7341 14.1974C13.5983 14.1974 17.0887 13.9777 18.3933 13.5672C18.3933 16.2381 16.8336 17.3076 15.6798 17.4233C14.1201 17.5331 12.1836 17.7181 9.91655 17.7181C9.39472 17.7181 8.83811 17.7181 8.31628 17.7933C8.13074 18.3136 8.02058 18.8686 7.86983 19.4235C6.90156 23.6843 6.42032 26.095 6.42032 27.5403C6.42032 28.2803 6.79139 28.9856 6.79139 29.396C5.93908 29.9915 4.41419 30.2863 3.15021 30.2863C1.32962 30.2863 0.732422 29.6562 0.732422 28.2861C0.732422 27.4362 0.91796 26.5459 1.14408 25.6152C1.48037 24.1352 1.77607 22.6899 2.14715 21.2041C4.00832 14.1627 5.52742 8.82669 5.52742 5.71643C5.52742 5.16144 5.5622 4.49083 5.34188 4.56599C4.86064 4.67583 4.3736 4.67583 4.15328 4.67583C4.04311 4.64114 4.00253 4.45614 4.04311 4.04568C4.04311 3.71037 4.11849 3.34038 4.26344 3.01086C4.93022 1.67541 5.23171 1.41526 6.37973 1.30542C9.49909 1.01058 12.659 0.860268 15.819 0.860268C17.3033 0.860268 18.6832 0.709961 19.7211 0.709961C21.2054 0.709961 21.8026 0.860267 22.2838 1.37479C22.0229 3.15538 20.985 5.23082 19.35 5.23082C18.9035 5.23082 18.1962 4.30583 16.2306 4.30583H14.8565C13.8186 4.30583 12.8504 4.23068 12.0676 4.23068H10.3572C10.7283 4.64114 10.879 5.01114 10.879 5.41582C10.879 5.6355 10.879 5.78581 10.8442 6.04596C10.4326 8.12139 9.69042 11.4918 9.02364 14.1974H10.7341Z" fill="#FF513E"/>
<path d="M28.9098 9.4917C32.9626 9.4917 35.7109 11.9718 35.7109 16.088C35.7109 23.0543 30.2839 30.0957 23.6683 30.0957C19.5807 30.0957 16.8672 27.4999 16.8672 23.2046C16.8672 19.6087 18.1312 16.3886 20.4736 13.6426C22.7754 11.0815 25.6744 9.4917 28.9098 9.4917ZM27.7907 12.232C24.48 12.232 22.329 19.3485 22.329 23.6092C22.329 25.7945 22.9957 27.3901 24.7815 27.3901C28.0516 27.3901 30.1679 20.3487 30.1679 16.088C30.1737 13.8969 29.5765 12.232 27.7907 12.232Z" fill="#FF513E"/>
<path d="M48.7926 9.4917C52.8454 9.4917 55.5937 11.9718 55.5937 16.088C55.5937 23.0543 50.1667 30.0957 43.5511 30.0957C39.4635 30.0957 36.75 27.4999 36.75 23.2046C36.75 19.6087 38.014 16.3886 40.3564 13.6426C42.664 11.0815 45.5631 9.4917 48.7926 9.4917ZM47.6793 12.232C44.3687 12.232 42.2176 19.3485 42.2176 23.6092C42.2176 25.7945 42.8843 27.3901 44.6702 27.3901C47.9403 27.3901 50.0565 20.3487 50.0565 16.088C50.0565 13.8969 49.4651 12.232 47.6793 12.232Z" fill="#FF513E"/>
<path d="M78.1954 22.7939C78.3461 22.7939 78.4157 22.9038 78.4157 23.1292C78.4157 25.8695 74.4788 29.8354 71.8349 29.8354C69.6781 29.8354 68.4894 28.5751 68.4894 25.7943C68.4894 24.904 68.5996 23.6842 68.7098 22.9385C65.66 27.9391 62.5406 30.055 59.9779 30.055C57.6355 30.055 56.2266 28.0895 56.2266 25.1237C56.2266 18.1921 61.6535 9.70541 67.9734 9.70541C69.4229 9.70541 70.4608 10.0754 71.5392 10.6709C72.0958 8.48559 72.3915 6.48532 72.3915 4.96488C72.3915 4.36942 72.3162 3.81442 72.0205 3.33459C73.3192 2.5946 74.734 2.22461 75.8124 2.22461C77.2271 2.22461 77.8939 2.96459 77.8939 4.30004C77.8939 5.45049 77.6736 6.52578 77.4127 7.63576C75.5515 15.5675 73.7309 21.2388 73.7309 24.3837C73.7309 25.1237 73.9512 25.6093 74.1426 25.9389C74.5136 25.8637 75.221 25.3434 75.9631 24.6439C77.117 23.3836 77.8649 22.7939 78.1954 22.7939ZM70.6173 15.0125C70.3564 13.5672 69.0577 12.5671 67.6429 12.5671C64.6685 12.5671 61.6246 18.9437 61.6246 24.2392C61.6999 25.5342 62.071 26.1643 62.8132 26.1643C63.8162 26.1643 65.4513 24.3491 67.3124 21.2735C68.5706 19.2327 69.6838 17.0879 70.6173 15.0125Z" fill="#FF513E"/>
<path d="M113.436 10.6765C113.436 21.2039 105.22 30.2803 96.2622 30.2803C93.6589 30.2803 91.0962 29.4305 89.0147 27.8349C88.9799 27.4996 89.0495 27.1296 89.2002 26.4243C90.7251 19.643 92.6964 12.1217 93.5488 7.48526C93.6241 7.11527 93.6589 6.82044 93.6589 6.59497C93.6589 5.48499 92.5457 5.81452 92.5457 4.99938C92.5457 4.03393 92.8414 3.03379 93.398 2.21865C95.7752 1.32835 99.0859 0.623047 102.281 0.623047C109.163 0.634609 113.436 3.63502 113.436 10.6765ZM107.858 11.6766C107.858 6.82043 105.667 3.92986 101.579 3.92986C100.982 3.92986 99.6831 4.08017 98.68 4.29986C98.8656 4.85485 98.9409 5.40983 98.9409 6.00529C98.9409 8.78602 96.1927 19.1227 95.0041 24.9039C95.3403 26.3491 96.268 26.9041 98.4249 26.9041C103.771 26.9041 107.858 19.1227 107.858 11.6766Z" fill="#454342"/>
<path d="M130.011 23.9041C130.533 24.8291 130.457 25.9795 129.791 26.8294C129.159 27.6098 128.231 28.3093 127.002 28.8296C125.14 29.6794 123.21 30.0899 121.128 30.0899C116.78 30.0899 114.292 28.1995 114.101 24.3839C113.915 20.5684 115.255 16.8222 117.818 14.0472C120.305 11.0815 123.505 9.4917 126.81 9.4917C129.93 9.4917 131.42 10.8272 131.379 13.3477C131.379 15.8683 128.109 19.0942 123.094 20.869C121.905 21.2794 119.487 22.349 119.453 23.3144C119.418 24.2047 119.528 24.9794 119.864 25.465C120.682 26.6501 122.021 27.3554 123.43 27.1704C126.074 26.9045 128.08 25.7598 130.011 23.9041ZM119.829 20.7938C120.461 19.4237 121.575 18.9381 122.949 18.1981C125.326 16.9031 125.999 15.6775 126.37 14.3825C126.741 13.0876 126.294 11.9718 124.955 11.9718C122.949 11.9718 121.273 14.5271 120.195 19.1231C120.201 19.1231 120.05 19.7532 119.829 20.7938Z" fill="#454342"/>
<path d="M140.754 25.1291C142.424 23.9035 143.729 22.8687 144.1 22.8687C144.396 22.8687 144.1 23.574 142.946 25.424C141.236 28.0949 137.56 29.9448 135.699 29.9448C133.727 29.9448 132.388 28.8695 132.388 26.5744C132.353 25.7593 132.498 24.869 132.724 23.4642C132.8 23.1693 132.834 22.834 132.875 22.4987C131.536 23.4642 130.979 23.8341 130.869 23.8341C130.718 23.8341 131.576 23.0537 132.689 22.094C132.655 22.1287 132.765 22.0189 133.026 21.7992C134.4 15.9429 136.035 9.97673 137.786 4.19558C137.971 3.64059 138.453 3.01044 139.05 2.59998C139.647 2.18952 140.314 2.07967 140.87 2.12014C141.949 2.1953 142.987 2.49014 144.03 3.27059C144.181 3.4209 144.291 3.60591 144.326 3.82559C144.326 3.86028 144.436 4.30542 144.436 5.16103C144.436 5.53103 144.436 5.97617 144.361 6.45601C144.175 8.01114 143.468 9.86689 142.691 11.6822C141.427 14.5727 139.572 17.0933 138.864 18.0183L138.83 18.238C138.754 18.5733 138.679 18.9433 138.569 19.3133C138.308 20.4984 137.641 23.574 137.641 24.499C137.641 25.239 137.641 26.0541 138.012 26.0541C139.085 26.0541 139.972 25.6841 140.754 25.1291ZM139.38 15.9371C140.198 14.752 141.201 13.0812 141.984 11.2312C142.766 9.49112 143.433 7.71052 143.584 6.29992C143.619 5.77962 143.659 5.29978 143.619 4.92978C143.619 4.55979 143.137 4.40948 142.952 4.74479C142.842 4.92979 142.732 5.15525 142.656 5.37493C142.024 7.0399 141.468 8.71065 140.986 10.3756C140.383 12.1967 139.862 14.0813 139.38 15.9371Z" fill="#454342"/>
<path d="M152.351 24.7595C153.986 22.9789 154.803 22.499 154.803 23.239C154.803 23.609 154.618 24.2739 154.206 25.2393C153.168 27.6501 150.153 29.9452 148.222 29.9452C146.251 29.9452 145.063 28.8352 144.912 26.5343C144.836 25.7191 144.912 23.3489 145.654 20.5681C146.286 18.3424 146.622 16.1571 146.883 14.787C147.034 14.047 147.069 13.3417 147.069 12.7867C147.069 12.0814 146.883 11.4917 146.512 10.931C147.811 10.4511 149.075 10.1505 150.229 10.1505C150.861 10.1505 151.643 10.2604 152.09 10.746C152.536 11.2258 152.687 11.8559 152.536 12.6711C152.426 13.2665 152.316 13.8562 152.125 14.5268C151.568 16.6023 150.895 18.9379 150.675 19.9727C150.379 21.2677 150.118 23.3836 150.118 24.4589C150.118 25.1988 150.153 26.0544 150.53 26.0544C150.977 26.0544 151.609 25.459 152.351 24.7595ZM154.137 0.669434C152.351 0.669434 150.605 1.00474 149.081 1.59442C149.156 1.77942 149.266 1.92972 149.266 2.11472C149.301 3.59469 148.669 5.71059 148.669 6.78589C148.669 7.38135 149.081 8.15602 150.64 7.82071C152.797 7.37556 152.757 7.41025 154.392 4.89545C155.36 3.41548 155.69 2.78533 155.876 2.08003C155.911 1.89504 155.911 1.78519 155.911 1.63488C155.882 1.07411 155.29 0.669434 154.137 0.669434Z" fill="#454342"/>
<path d="M170.005 11.2316C170.005 10.5667 169.593 9.34114 169.152 8.86131C169.599 8.78615 170.231 8.75146 170.526 8.75146C173.205 8.75146 174.394 9.45677 174.394 11.457C174.394 13.0526 173.165 15.9432 170.492 20.0536C166.7 25.9099 163.43 30.0955 159.232 30.0955C158.971 30.0955 158.71 30.0955 158.449 30.0203C158.449 29.5 158.524 28.7253 158.524 28.0952C158.559 25.4243 158.113 20.4988 157.371 16.1629C156.849 13.1625 156.478 11.6074 155.66 10.9772C157.11 10.0869 158.524 9.60708 159.823 9.60708C161.383 9.60708 162.311 10.6824 162.461 12.9775C162.832 15.6831 162.943 19.4986 162.943 22.6493C162.943 23.4992 162.943 24.3143 162.908 25.1699C165.065 22.3545 166.659 19.7588 167.923 17.4637C169.413 14.8275 170.005 12.7116 170.005 11.2316Z" fill="#454342"/>
<path d="M189.927 23.9041C190.449 24.8291 190.373 25.9795 189.707 26.8294C189.075 27.6098 188.147 28.3093 186.918 28.8296C185.056 29.6794 183.126 30.0899 181.044 30.0899C176.696 30.0899 174.208 28.1995 174.017 24.3839C173.831 20.5684 175.171 16.8222 177.734 14.0472C180.221 11.0815 183.421 9.4917 186.726 9.4917C189.846 9.4917 191.336 10.8272 191.295 13.3477C191.295 15.8683 188.025 19.0942 183.01 20.869C181.821 21.2794 179.403 22.349 179.369 23.3144C179.334 24.2047 179.444 24.9794 179.78 25.465C180.598 26.6501 181.937 27.3554 183.346 27.1704C185.99 26.9045 187.996 25.7598 189.927 23.9041ZM179.745 20.7938C180.377 19.4237 181.491 18.9381 182.865 18.1981C185.242 16.9031 185.915 15.6775 186.286 14.3825C186.657 13.0876 186.21 11.9718 184.871 11.9718C182.865 11.9718 181.189 14.5271 180.111 19.1231C180.117 19.1231 179.972 19.7532 179.745 20.7938Z" fill="#454342"/>
<path d="M208.182 24.9788C206.953 27.4589 203.682 29.9101 201.717 29.9101C199.635 29.9101 198.261 28.8348 198.557 26.3894C198.708 24.869 199.409 22.5739 199.821 21.2731C200.192 19.9377 201.868 15.122 202.088 14.3415C202.308 13.6015 202.459 13.2315 201.978 13.3067C201.642 13.3818 200.157 13.6015 198.708 13.6015C198.447 14.3415 198.041 15.492 197.368 16.7118C196.702 17.8969 195.843 19.1225 195.026 19.7527C194.058 20.458 192.944 20.7875 191.941 20.3828C193.837 18.1571 194.545 16.3071 194.69 13.6015C191.193 12.3065 194.243 7.48507 195.803 7.82037C195.768 8.78583 193.646 11.3758 202.94 9.78597C204.169 9.49113 206.842 8.82051 207.324 11.0463C207.845 13.5668 206.245 16.4169 205.462 18.9028C204.83 21.0129 204.123 22.8282 204.013 24.1637C203.978 24.9788 203.903 25.9038 204.349 25.8691C204.761 25.8344 205.462 25.2043 206.321 24.499C209.04 21.6836 209.672 21.9379 208.182 24.9788Z" fill="#454342"/>
<path d="M205.137 35.3561C205.137 34.6508 205.432 33.7258 205.803 32.9453C206.14 33.2402 207.067 33.5408 207.665 33.5408C209.966 33.5408 212.234 31.6504 213.944 29.2049C214.205 28.8349 214.28 28.2048 214.28 27.4995C214.28 26.8693 214.205 26.2045 214.129 25.6437C213.092 17.2322 211.787 12.006 210.448 10.9712C211.932 10.0809 213.347 9.60105 214.646 9.60105C216.02 9.60105 216.947 10.5665 217.249 12.6419C217.805 16.4228 218.287 21.0188 218.548 24.6841C222.229 19.4984 224.827 14.4919 224.827 11.8268C224.827 11.162 224.415 9.93636 223.975 9.45652C224.421 9.38137 225.053 9.34668 225.349 9.34668C228.062 9.34668 229.251 10.1618 229.251 11.8673C229.251 14.2028 225.383 20.6893 219.475 28.4303C214.014 35.6567 210.743 37.5471 207.989 37.5471C206.389 37.5471 205.386 36.9517 205.166 35.7665C205.137 35.6509 205.137 35.5064 205.137 35.3561Z" fill="#454342"/>
</svg>
