<svg width="237" height="42" viewBox="0 0 237 42" fill="none" xmlns="http://www.w3.org/2000/svg">
<path d="M0.244141 40.641V8.381C0.244141 5.551 0.994141 3.431 2.48414 2.021C3.89414 0.690996 6.21414 0.0209961 9.43414 0.0209961C10.2141 0.0209961 10.8441 0.0609961 11.3141 0.140996C12.1741 0.140996 12.8441 0.180996 13.3141 0.260996V6.731H11.1941C10.0941 6.731 9.31414 6.891 8.84414 7.201C8.44414 7.521 8.25414 8.141 8.25414 9.091V11.211H13.3141V12.981C13.3141 14.161 12.9241 15.121 12.1341 15.861C11.3441 16.611 10.4441 16.981 9.42414 16.981H8.25414V40.641H0.244141V40.641Z" fill="#142328"/>
<path d="M19.5939 37.8108C17.9439 36.4008 16.7639 34.4908 16.0639 32.1008C15.3539 29.7108 15.0039 27.2108 15.0039 24.6208C15.0039 22.5008 15.2939 20.3808 15.8839 18.2608C16.4739 16.1408 17.3939 14.3808 18.6539 12.9608C20.6939 10.6108 23.3239 9.21077 26.5439 8.78077C29.7639 8.35077 32.6639 8.60077 35.2539 9.54077C38.2339 10.7208 40.4339 12.7608 41.8439 15.6608C43.1739 18.2508 43.8439 21.2708 43.8439 24.7308C43.8439 27.2408 43.5639 29.4008 43.0239 31.2108C42.4739 33.0208 41.7639 34.5508 40.9039 35.8008C39.0239 38.3908 36.6239 40.0008 33.7239 40.6308C31.1339 41.3408 28.5239 41.4008 25.8939 40.8108C23.2639 40.2208 21.1639 39.2208 19.5939 37.8108ZM25.2439 17.0908C23.5939 18.9008 22.8539 21.5808 23.0039 25.1508C23.1639 28.7208 23.8239 31.2108 25.0039 32.6308C25.4739 33.2608 26.3039 33.7908 27.4739 34.2208C28.6539 34.6508 29.8439 34.6908 31.0639 34.3408C32.2839 33.9908 33.3639 33.1008 34.3039 31.6908C35.2439 30.2808 35.7539 28.0008 35.8339 24.8608C35.8339 22.0308 35.3839 19.9208 34.4839 18.5008C33.5839 17.0908 32.5439 16.1908 31.3639 15.7908C30.1839 15.4008 29.0139 15.3808 27.8339 15.7308C26.6539 16.0908 25.7939 16.5408 25.2439 17.0908Z" fill="#142328"/>
<path d="M50.8341 37.811C49.1841 36.401 48.0041 34.491 47.3041 32.101C46.5941 29.711 46.2441 27.221 46.2441 24.631C46.2441 22.511 46.5341 20.391 47.1241 18.271C47.7141 16.151 48.6341 14.391 49.8941 12.971C51.9341 10.621 54.5641 9.22102 57.7841 8.79102C61.0041 8.36102 63.9041 8.61102 66.4941 9.55102C69.4741 10.731 71.6741 12.771 73.0841 15.671C74.4141 18.261 75.0841 21.281 75.0841 24.741C75.0841 27.251 74.8041 29.411 74.2641 31.221C73.7141 33.031 73.0041 34.561 72.1441 35.811C70.2641 38.401 67.8641 40.011 64.9641 40.641C62.3741 41.351 59.7641 41.411 57.1341 40.821C54.5041 40.221 52.4041 39.221 50.8341 37.811ZM56.4841 17.091C54.8341 18.901 54.0941 21.581 54.2441 25.151C54.4041 28.721 55.0641 31.211 56.2441 32.631C56.7141 33.261 57.5441 33.791 58.7141 34.221C59.8941 34.651 61.0841 34.691 62.3041 34.341C63.5241 33.991 64.6041 33.101 65.5441 31.691C66.4841 30.281 66.9941 28.001 67.0741 24.861C67.0741 22.031 66.6241 19.921 65.7241 18.501C64.8241 17.091 63.7841 16.191 62.6041 15.791C61.4241 15.401 60.2541 15.381 59.0741 15.731C57.8941 16.091 57.0341 16.541 56.4841 17.091Z" fill="#142328"/>
<path d="M98.9141 0.0209961H102.914C104.014 0.0209961 104.954 0.430996 105.744 1.261C106.524 2.081 106.924 3.011 106.924 4.031V26.991C106.924 32.561 105.314 36.331 102.094 38.291C98.8741 40.251 95.3841 41.231 91.6141 41.231C89.5741 41.231 87.5741 40.891 85.6141 40.231C83.6541 39.561 82.0841 38.481 80.9041 36.991C78.6241 34.091 77.4941 30.121 77.4941 25.101C77.4941 20.161 78.6341 16.191 80.9041 13.211C83.2641 10.151 86.2841 8.621 89.9641 8.621C91.9241 8.621 93.6541 9.011 95.1441 9.801C96.7141 10.741 97.9641 11.961 98.9141 13.451V0.0209961ZM85.4841 24.741C85.4841 27.881 86.0741 30.271 87.2541 31.921C88.4341 33.571 90.1141 34.391 92.3141 34.391C94.4341 34.391 96.0841 33.561 97.2541 31.921C98.3541 30.271 98.9041 27.881 98.9041 24.741C98.9041 21.911 98.3141 19.681 97.1341 18.031C95.8741 16.461 94.1941 15.671 92.0741 15.671C90.0341 15.671 88.4241 16.501 87.2441 18.141C86.0741 19.721 85.4841 21.921 85.4841 24.741Z" fill="#142328"/>
<path d="M131.914 30.9811H137.804C136.934 34.2811 135.294 36.7911 132.854 38.5111C130.424 40.3211 127.364 41.2211 123.674 41.2211C119.204 41.2211 115.704 39.7711 113.194 36.8611C110.684 34.0311 109.424 29.9911 109.424 24.7311C109.424 19.7111 110.644 15.7811 113.074 12.9611C115.584 10.0611 119.074 8.60107 123.554 8.60107C128.264 8.60107 131.914 10.0111 134.504 12.8411C135.914 14.5711 136.934 16.5711 137.564 18.8411H129.324C128.934 18.0611 128.534 17.4711 128.144 17.0711C127.124 15.9711 125.674 15.4211 123.784 15.4211C122.054 15.4211 120.644 15.9711 119.544 17.0711C118.134 18.6411 117.424 21.2311 117.424 24.8411C117.424 28.4511 118.134 31.0011 119.544 32.4911C120.564 33.7511 122.094 34.3711 124.134 34.3711C125.464 34.3711 126.604 34.1011 127.544 33.5411C127.774 33.4611 127.994 33.3311 128.194 33.1311C128.394 32.9311 128.604 32.7211 128.844 32.4811C129.004 32.2411 129.314 31.9311 129.784 31.5411C130.264 31.1811 130.974 30.9811 131.914 30.9811Z" fill="#06C167"/>
<path d="M144.795 37.8108C143.145 36.4008 141.965 34.4908 141.265 32.1008C140.555 29.7108 140.205 27.2108 140.205 24.6208C140.205 22.5008 140.495 20.3808 141.085 18.2608C141.675 16.1408 142.595 14.3808 143.855 12.9608C145.895 10.6108 148.525 9.21077 151.745 8.78077C154.965 8.35077 157.865 8.60077 160.455 9.54077C163.435 10.7208 165.635 12.7608 167.045 15.6608C168.375 18.2508 169.045 21.2708 169.045 24.7308C169.045 27.2408 168.765 29.4008 168.215 31.2108C167.665 33.0208 166.955 34.5508 166.095 35.8008C164.215 38.3908 161.815 40.0008 158.915 40.6308C156.325 41.3408 153.715 41.4008 151.085 40.8108C148.455 40.2208 146.365 39.2208 144.795 37.8108ZM150.445 17.0908C148.795 18.9008 148.055 21.5808 148.205 25.1508C148.365 28.7208 149.025 31.2108 150.205 32.6308C150.675 33.2608 151.495 33.7908 152.675 34.2208C153.855 34.6508 155.045 34.6908 156.265 34.3408C157.485 33.9908 158.555 33.1008 159.505 31.6908C160.445 30.2808 160.955 28.0008 161.035 24.8608C161.035 22.0308 160.585 19.9208 159.685 18.5008C158.785 17.0908 157.745 16.1908 156.565 15.7908C155.385 15.4008 154.215 15.3808 153.035 15.7308C151.855 16.0908 150.995 16.5408 150.445 17.0908Z" fill="#06C167"/>
<path d="M199.455 9.32104V27.691C199.455 33.261 198.005 36.911 195.095 38.641C192.195 40.371 189.015 41.231 185.555 41.231C182.175 41.071 179.095 40.131 176.315 38.401C173.525 36.671 172.135 33.101 172.135 27.691V9.32104H180.375V29.331C180.375 31.211 180.925 32.591 182.025 33.451C183.125 34.311 184.375 34.751 185.795 34.751C187.205 34.751 188.485 34.321 189.625 33.451C190.765 32.591 191.335 31.211 191.335 29.331V13.321C191.335 12.221 191.705 11.281 192.455 10.491C193.195 9.71104 194.165 9.31104 195.335 9.31104H199.455V9.32104Z" fill="#06C167"/>
<path d="M202.564 40.6411V25.4511C202.564 22.3911 203.014 19.8211 203.914 17.7411C204.814 15.6611 206.054 13.9911 207.624 12.7411C209.114 11.5611 210.864 10.7011 212.864 10.1511C214.864 9.60105 216.924 9.33105 219.044 9.33105C219.204 9.33105 219.394 9.33105 219.634 9.33105C219.874 9.33105 220.064 9.33105 220.224 9.33105V17.6911H217.514C215.234 17.6911 213.554 18.2411 212.454 19.3411C211.354 20.4411 210.804 22.1711 210.804 24.5211V40.6511H202.564V40.6411Z" fill="#06C167"/>
<path d="M236.745 40.6411C234.155 40.8011 231.345 40.7611 228.325 40.5211C225.305 40.2811 223.795 38.3611 223.795 34.7511V0.141113H228.035C229.055 0.141113 229.955 0.531113 230.745 1.32111C231.525 2.11111 231.925 3.05111 231.925 4.15111V9.45111H236.755V11.1011C236.755 12.2811 236.365 13.2411 235.575 13.9811C234.785 14.7311 233.845 15.1011 232.745 15.1011H231.925V32.5211C231.925 33.8511 232.705 34.5211 234.275 34.5211H236.745V40.6411V40.6411Z" fill="#06C167"/>
</svg>
