<svg width="267" height="77" viewBox="0 0 267 77" fill="none" xmlns="http://www.w3.org/2000/svg">
<path d="M265.617 38.6304C265.577 38.5816 265.56 38.5213 265.55 38.4612C265.572 38.5156 265.595 38.576 265.617 38.6304C265.641 38.1401 265.586 37.6839 265.423 37.2611C265.03 36.2403 264.65 35.2138 264.263 34.1871C264.112 33.2558 263.658 32.5688 263.235 32.08C262 30.6443 260.56 29.8563 259.026 29.5449C258.782 29.2758 258.497 29.4906 258.237 29.3887C256.45 28.6704 254.637 28.8373 252.823 29.2616C252.541 29.3268 252.264 29.2365 251.986 29.3796C251.287 29.7343 250.55 29.699 249.831 29.8737C248.879 30.1087 247.912 30.2117 246.959 30.5006C246.383 30.6726 245.803 30.7966 245.228 30.9328C244.641 31.0687 244.055 31.2045 243.468 31.3344C243.332 31.3252 243.194 31.3459 243.055 31.4265C242.548 31.4624 242.039 31.3667 241.539 31.6123C241.467 31.6166 241.396 31.6149 241.324 31.6192C239.805 31.6853 238.29 31.5121 236.772 31.7697C234.757 31.6386 232.742 31.4835 230.763 30.8205C230.397 30.6982 230.038 30.5162 229.657 30.5431C229.17 30.4539 228.782 30.0078 228.361 29.6926C228.027 29.4454 227.719 29.1269 227.398 28.844C227.137 28.5625 226.836 28.4537 226.541 28.3331C226.149 28.0485 225.757 27.758 225.365 27.4734C224.611 26.8512 223.858 26.2349 223.104 25.6126C223.124 25.2719 222.955 25.1183 222.822 24.9536C222.348 24.3498 221.843 23.7993 221.3 23.3615C220.663 22.8438 220.164 22.03 219.571 21.4175C219.304 21.1359 219.041 20.6748 218.901 21.8207C218.73 21.2241 218.535 20.9083 218.303 20.6455C218.367 20.198 218.432 19.7327 218.268 19.3338C217.795 18.1854 217.992 16.9091 218.068 15.7017C218.188 13.8969 218.355 12.0871 217.967 10.3721C217.649 8.95798 217.211 7.58295 216.3 6.80736C216.192 6.61327 216.047 6.43629 215.889 6.5523C215.653 6.72034 215.509 6.54934 215.389 6.30711C215.185 5.88929 214.901 5.79883 214.592 5.77362C214.38 5.43343 214.112 5.42116 213.831 5.45647L213.832 5.42656C213.635 5.18251 213.4 5.31465 213.187 5.27971C213.162 5.30906 213.138 5.32047 213.114 5.31991C213.138 5.30252 213.162 5.2971 213.187 5.27971C212.117 4.93136 211.028 5.15121 209.945 5.13774C206.01 5.12911 202.069 5.12633 198.134 5.11771C197.853 5.16498 197.58 5.10471 197.3 5.10412C194.979 5.08551 192.657 5.1028 190.335 5.10812C190.186 5.10462 190.043 5.10725 189.894 5.10376C189.787 5.09526 189.68 5.08078 189.573 5.07826C180.179 5.06711 170.79 5.05012 161.395 5.04496C157.537 5.04413 153.679 5.05527 149.821 5.05444C149.607 5.0554 149.398 5.05649 149.184 5.05744C144.921 5.05309 140.665 5.0429 136.402 5.03856C133.699 5.03493 130.996 5.03131 128.293 5.02768C126.442 5.02011 124.585 5.00044 122.733 5.00483C119.167 5.00488 115.6 5.0109 112.04 5.01706C110.522 5.01732 109.01 5.01173 107.491 5.01199C107.277 5.01294 107.063 5.01389 106.842 5.0147C106.771 5.01303 106.694 5.01121 106.622 5.00953C106.444 4.99936 106.266 4.9832 106.081 4.97887C101.58 4.96893 97.0797 4.95899 92.5787 4.96102C89.1732 4.95885 85.7733 4.97477 82.3677 4.97859C82.2606 4.97607 82.1474 4.9794 82.0403 4.97688C81.4628 4.97529 80.8794 4.97356 80.3019 4.97197C77.7419 4.9717 75.176 4.9653 72.6159 4.96503C72.3661 4.95318 72.1105 4.93521 71.8605 4.93532C68.223 4.9277 64.5855 4.92008 60.9478 4.91845C57.584 4.91726 54.214 4.92789 50.85 4.93268C50.5583 4.93182 50.2726 4.93109 49.9807 4.93621C49.7665 4.93118 49.5531 4.89025 49.3381 4.92111C48.9379 4.97756 48.5157 4.95567 48.1472 5.18046C47.5069 5.57245 47.3122 6.51361 47.2293 7.5053C47.1255 7.61659 47.1332 7.79634 47.1173 7.96356C46.913 9.82032 46.97 11.7012 46.8487 13.5718C46.7923 14.4504 46.5348 15.2764 46.5912 16.1696C46.577 16.5224 46.5627 16.8752 46.5483 17.234C46.2441 17.7656 46.6063 18.5702 46.2195 19.0699C45.6807 19.1949 45.1961 19.5487 44.7957 20.1199C44.4507 20.6146 44.0718 21.0307 43.6926 21.4587C43.4955 21.484 43.3094 21.5515 43.1161 21.6666C40.9601 22.9688 38.962 24.8971 36.7298 25.8922C36.2846 26.0912 35.8439 26.3502 35.4037 26.5853C34.261 26.8219 33.1427 27.2864 31.9813 27.307C30.7364 27.3317 29.4968 27.129 28.2546 27.2913C26.6249 27.2231 25.0039 27.0414 23.3728 27.2844C21.9759 26.9344 20.573 26.5902 19.1762 26.2401C18.3588 26.0593 17.5335 25.9621 16.7363 25.686C15.8031 25.3648 14.8591 25.2528 13.9137 25.2007C12.1836 25.1002 10.4713 25.5029 8.77334 26.0616C8.12784 25.9148 7.54522 26.3859 6.93378 26.5631C6.06915 26.6206 5.31983 27.3452 4.5132 27.7214C3.81247 28.4052 3.00275 28.9129 2.42801 29.8093C1.36506 31.4663 0.957593 33.6056 1.09307 35.9492C1.17109 37.1901 1.29714 38.4141 1.65169 39.5418C1.79759 40.1737 1.90086 40.8465 2.29027 41.2507C2.2794 41.46 2.31712 41.6284 2.40244 41.798C3.20946 43.4331 4.3034 44.5123 5.46954 45.3059C7.8782 46.9367 10.4508 47.1647 13.0586 46.9087C13.3151 46.8848 13.5812 46.9629 13.8241 46.7591C14.0019 46.7932 14.1842 46.8932 14.352 46.8433C15.8377 46.4532 17.3423 46.5245 18.829 46.0925C21.0949 45.4334 23.4008 45.3559 25.6885 45.0385C26.3636 44.9406 27.0391 44.8248 27.7204 44.7151C28.4692 44.7746 29.224 44.8283 29.9728 44.8877C30.4035 45.0535 30.8276 45.249 31.2593 45.3729C32.5897 45.7633 33.92 46.1596 35.2357 46.6694C36.457 47.141 37.5465 48.1543 38.7827 48.5005C40.6376 49.3761 42.3017 50.768 43.6922 52.9076C44.3129 53.8559 44.7192 55.0626 45.2728 56.0812C45.8833 57.2089 46.1152 58.4893 46.1283 59.9621C46.1387 61.7999 46.0538 63.6415 46.2849 65.4606C46.4564 66.7755 46.7314 67.9971 47.303 69.0101C47.6057 69.8074 47.9885 70.4927 48.4824 71.0131C49.4588 71.0121 50.4291 71.0169 51.4056 71.0159C51.5127 71.0184 51.6199 71.015 51.733 71.0176C57.109 71.0242 62.491 71.0309 67.867 71.0374C68.9862 71.0398 70.1054 71.0421 71.2247 71.0445C71.3676 71.0418 71.5164 71.0453 71.6593 71.0427C72.6358 71.0417 73.6061 71.0465 74.5825 71.0455C76.2078 71.0478 77.8331 71.05 79.4584 71.0523C83.2151 71.0567 86.9658 71.061 90.7225 71.0654C94.8006 71.0714 98.8787 71.0774 102.957 71.0834C108.66 71.0917 114.364 71.0999 120.067 71.1022C120.174 71.1047 120.282 71.1013 120.395 71.1039C120.758 71.1065 121.115 71.1029 121.478 71.1054C127.902 71.1126 134.326 71.1198 140.756 71.1272C141.19 71.1255 141.625 71.1297 142.054 71.1278C147.65 71.1335 153.246 71.1392 158.836 71.1508C160.605 71.1505 162.373 71.1561 164.141 71.1557C165.588 71.1597 167.029 71.1577 168.475 71.1617C169.88 71.1648 171.291 71.168 172.696 71.1651C177.173 71.1685 181.65 71.1779 186.121 71.1811C190.021 71.1889 193.92 71.1907 197.814 71.1984C197.921 71.2009 198.028 71.1974 198.141 71.2001C198.505 71.2026 198.862 71.199 199.225 71.2016C200.523 71.2021 201.827 71.2028 203.124 71.2093C203.702 71.2109 204.279 71.2125 204.857 71.2141C205.149 71.215 205.434 71.2157 205.726 71.2166C206.411 71.2147 207.095 71.2188 207.786 71.2171C209.697 71.2201 211.614 71.2232 213.525 71.2262C213.739 71.2252 213.96 71.2244 214.174 71.2294C214.859 71.2276 215.543 71.2317 216.234 71.2299C216.463 70.8522 216.837 70.6635 216.893 70.0483C217.025 69.7222 217.234 69.4458 217.239 69.0149C217.34 68.2511 217.424 67.4749 217.649 66.7619C217.739 66.4767 217.62 66.2165 217.597 65.9406C217.501 64.6874 217.249 63.4784 217.238 62.2031C217.384 61.5422 217.689 60.9867 217.783 60.2885C217.808 59.9659 217.973 59.8081 218.103 59.6017C218.375 59.4166 218.55 59.0496 218.765 58.7553C219.251 58.3657 219.56 57.6247 220.012 57.1565C221.178 55.9329 222.399 54.8961 223.665 53.9561C225.204 52.8131 226.748 51.73 228.406 51.1046C228.812 50.7729 229.273 50.676 229.663 50.2901C229.681 50.2845 229.699 50.273 229.718 50.2375C230.228 50.0759 230.753 50.0284 231.248 49.7407C231.49 49.5728 231.746 49.5788 232.002 49.5609C232.99 49.5602 233.958 49.1819 234.947 49.1393C235.65 49.1139 236.352 48.9089 237.052 48.7697C237.111 48.7711 237.165 48.7604 237.225 48.7319C239.166 48.9929 241.115 48.6436 243.054 48.7371C243.601 48.9894 244.173 49.0028 244.727 49.2432C246.065 49.8134 247.417 50.2761 248.763 50.7866C249.596 51.303 250.486 51.4196 251.37 51.5781C252.093 51.7028 252.829 51.8039 253.562 51.7612C254.093 51.7318 254.632 51.5709 255.148 51.6907C256.764 52.0699 258.353 52.0833 259.918 51.1264C261.263 50.6193 262.447 49.6475 263.419 48.0542C263.632 47.8796 263.838 47.6989 263.971 47.3668C264.535 46.4403 265.075 45.4893 265.43 44.3184C266.094 42.4306 266.037 40.5377 265.617 38.6304Z" fill="#C90117"/>
<path d="M71.748 25.1399H84.4795V30.0049H76.6585V39.8068H83.3902V44.6898H76.6585V59.3567H71.748V25.1399Z" fill="white"/>
<path d="M101.526 52.7087C101.526 57.4959 99.1751 59.8955 94.467 59.9075C89.7709 59.9075 87.4258 57.5079 87.4258 52.7087V31.7824C87.4258 26.9952 89.7709 24.6016 94.467 24.6016C99.1751 24.6016 101.526 26.9952 101.526 31.7824V52.7087ZM96.6157 31.7824C96.6157 30.2505 95.9074 29.4726 94.4849 29.4606H94.4492C93.0385 29.4606 92.3362 30.2326 92.3362 31.7824V52.7087C92.3362 54.2525 93.0445 55.0305 94.467 55.0305C95.9015 55.0305 96.6157 54.2585 96.6157 52.7087V31.7824Z" fill="white"/>
<path d="M119.442 52.7087C119.442 57.4959 117.091 59.8955 112.383 59.9075C107.687 59.9075 105.342 57.5079 105.342 52.7087V31.7824C105.342 26.9952 107.687 24.6016 112.383 24.6016C117.091 24.6016 119.442 26.9952 119.442 31.7824V52.7087ZM114.532 31.7824C114.532 30.2505 113.823 29.4726 112.401 29.4606H112.365C110.955 29.4606 110.252 30.2326 110.252 31.7824V52.7087C110.252 54.2525 110.961 55.0305 112.383 55.0305C113.817 55.0305 114.532 54.2585 114.532 52.7087V31.7824Z" fill="white"/>
<path d="M132.448 14.0515H137.358V52.7085C137.358 57.4958 135.007 59.8954 130.299 59.9073C125.603 59.9073 123.258 57.5077 123.258 52.7085V31.8002C123.258 27.013 125.055 24.6134 128.65 24.6014C130.21 24.6014 131.478 24.9664 132.448 25.6965V14.0515ZM132.448 31.7823C132.436 30.2503 131.728 29.4784 130.317 29.4784C128.882 29.4784 128.168 30.2503 128.168 31.8002V52.7085C128.168 54.2524 128.877 55.0303 130.299 55.0303C131.733 55.0303 132.448 54.2584 132.448 52.7085V31.7823Z" fill="white"/>
<path d="M150.326 25.1399H155.237V39.8008H159.522V25.1399H164.432V59.3507H159.522V44.6898H155.237V59.3567H150.326V25.1399Z" fill="white"/>
<path d="M182.694 52.7084C182.694 57.4957 180.343 59.8953 175.635 59.9072C170.939 59.9072 168.594 57.5076 168.594 52.7084V25.1399H173.504V52.7084C173.504 54.2523 174.212 55.0302 175.635 55.0302C177.069 55.0302 177.784 54.2583 177.784 52.7084V25.1399H182.694V52.7084Z" fill="white"/>
<path d="M193.377 25.14H197.175V30.005H193.377V59.3508H188.467V30.005H184.943V25.14H188.467V14.0515H193.377V25.14Z" fill="white"/>
</svg>
