<svg width="171" height="72" viewBox="0 0 171 72" fill="none" xmlns="http://www.w3.org/2000/svg">
<path d="M69.1964 13.4097C64.7564 5.72972 55.4564 -0.920283 50.4064 1.98972C45.3564 4.90972 46.4664 16.2797 50.9064 23.9697C53.7564 28.9097 57.2964 31.1197 60.7964 31.2897C62.7664 31.3897 64.5864 32.3597 65.5764 34.0697L86.0264 69.4797C86.7264 70.6997 88.1964 71.3397 89.5264 70.8797C91.3164 70.2597 92.0164 68.2197 91.1164 66.6697L70.6164 31.1597C69.6264 29.4497 69.6964 27.3797 70.5964 25.6297C72.1964 22.5197 72.0464 18.3597 69.1964 13.4097Z" fill="#06C167"/>
<path d="M51.0957 15.6597C51.3357 16.4997 51.7257 17.2997 52.1157 18.0797C52.4957 18.8697 52.9157 19.6397 53.3557 20.3897C54.2357 21.8897 55.2057 23.3397 56.3657 24.6197C56.9357 25.2697 57.5557 25.8597 58.2357 26.3697C58.9057 26.8897 59.6457 27.3197 60.4357 27.6297C62.0157 28.2697 63.8157 28.1897 65.4857 27.5997C64.7057 28.0197 63.8457 28.2997 62.9557 28.4197C62.0557 28.5297 61.1257 28.4297 60.2557 28.1497C58.5057 27.5897 57.0257 26.4197 55.8357 25.0897C54.6357 23.7497 53.6657 22.2397 52.8657 20.6497C52.4657 19.8597 52.1057 19.0397 51.7957 18.2097C51.6457 17.7897 51.5057 17.3697 51.3757 16.9497C51.2557 16.5297 51.1257 16.0997 51.0957 15.6597Z" fill="#06C167"/>
<path d="M102.847 6.72963L95.4967 19.4596L94.1967 18.7096L101.547 5.97963C101.847 5.45963 101.667 4.78963 101.147 4.48963C100.627 4.18963 99.9567 4.36963 99.6567 4.88963L92.3067 17.6196L91.0067 16.8696L98.3567 4.13963C98.6567 3.61963 98.4767 2.94963 97.9567 2.64963C97.4367 2.34963 96.7667 2.52963 96.4667 3.04963L89.1167 15.7796L87.8167 15.0296L95.1667 2.29963C95.4667 1.77963 95.2867 1.10963 94.7667 0.809633L94.5367 0.669633C94.0167 0.369633 93.3467 0.549633 93.0467 1.06963L80.9067 22.1596C79.9367 23.8296 79.7567 25.7396 80.2467 27.4596C80.6967 29.0696 80.5167 30.7896 79.6767 32.2396L59.4567 67.2696C58.7567 68.4896 58.9367 70.0796 59.9967 70.9996C61.4267 72.2396 63.5467 71.8296 64.4367 70.2696L84.7067 35.1596C85.5467 33.7096 86.9467 32.6896 88.5667 32.2796C90.2967 31.8396 91.8667 30.7296 92.8267 29.0596L104.997 7.97963C105.297 7.45963 105.117 6.78963 104.597 6.48963L104.327 6.33963C103.817 6.02963 103.147 6.20963 102.847 6.72963Z" fill="#06C167"/>
<path d="M83.2368 27.8996C82.7268 26.9896 82.3968 25.9796 82.2868 24.9096C82.2268 24.3696 82.2668 23.8196 82.4068 23.2696C82.4368 23.1296 82.4868 22.9996 82.5468 22.8696C82.6068 22.7396 82.6568 22.5996 82.7468 22.4796C82.8268 22.3596 82.9168 22.2296 82.9968 22.1296L83.2268 21.8296C83.8468 21.0296 84.4368 20.1896 85.0468 19.3596C85.6468 18.5296 86.2568 17.6896 86.9068 16.8796C86.5068 17.8396 86.0368 18.7696 85.5168 19.6596C84.9968 20.5596 84.4368 21.4296 83.7968 22.2596L83.5468 22.5696C83.4668 22.6696 83.4168 22.7496 83.3468 22.8496C83.2268 23.0396 83.1268 23.2396 83.0568 23.4596C82.9068 23.8996 82.8468 24.3896 82.8368 24.8796C82.8368 25.8796 83.0068 26.8896 83.2368 27.8996Z" fill="#06C167"/>
<path d="M1.40625 44.6896V30.5596H4.47625C5.52625 30.5596 6.35625 30.7196 6.96625 31.0396C7.57625 31.3596 8.01625 31.8396 8.27625 32.4796C8.53625 33.1196 8.66625 33.9196 8.66625 34.8696V40.0696C8.66625 41.0696 8.53625 41.9096 8.27625 42.5996C8.01625 43.2896 7.58625 43.8096 7.00625 44.1596C6.41625 44.5196 5.62625 44.6896 4.64625 44.6896H1.40625ZM3.37625 43.2796H4.49625C5.21625 43.2796 5.72625 43.1396 6.03625 42.8596C6.33625 42.5796 6.52625 42.1696 6.58625 41.6396C6.64625 41.1096 6.68625 40.4596 6.68625 39.6996V35.1096C6.68625 34.3796 6.63625 33.7796 6.54625 33.3296C6.45625 32.8796 6.24625 32.5396 5.93625 32.3296C5.62625 32.1196 5.12625 32.0196 4.45625 32.0196H3.37625V43.2796Z" fill="#FF441F"/>
<path d="M11.5762 44.6896L14.5762 30.5596H16.4762L19.4962 44.6896H17.6262L16.9762 41.1296H14.0962L13.4162 44.6896H11.5762ZM14.3662 39.7196H16.7162L15.5262 33.3496L14.3662 39.7196Z" fill="#FF441F"/>
<path d="M22.7754 44.6896V30.5596H24.7154V44.6896H22.7754Z" fill="#FF441F"/>
<path d="M28.7461 44.6896V30.5596H30.7161V43.2796H34.3261V44.6896H28.7461Z" fill="#FF441F"/>
<path d="M39.0871 44.6896V39.6996L36.0371 30.5596H37.8671L40.0271 37.3796L42.1571 30.5596H44.0071L40.9671 39.6996V44.6896H39.0871Z" fill="#FF441F"/>
<path d="M97.127 46.2696V32.1396H100.197C101.247 32.1396 102.077 32.2996 102.687 32.6196C103.297 32.9396 103.737 33.4196 103.997 34.0596C104.257 34.6996 104.387 35.4996 104.387 36.4496V41.6496C104.387 42.6496 104.257 43.4896 103.997 44.1796C103.737 44.8696 103.307 45.3896 102.727 45.7396C102.137 46.0996 101.347 46.2696 100.367 46.2696H97.127ZM99.097 44.8596H100.217C100.937 44.8596 101.447 44.7196 101.757 44.4396C102.057 44.1596 102.247 43.7496 102.307 43.2196C102.367 42.6896 102.407 42.0396 102.407 41.2796V36.6896C102.407 35.9596 102.357 35.3596 102.267 34.9096C102.177 34.4596 101.967 34.1196 101.657 33.9096C101.347 33.6996 100.847 33.5996 100.177 33.5996H99.117V44.8596H99.097Z" fill="#FF441F"/>
<path d="M108.057 46.2696V32.1396H113.537V33.6096H110.027V38.2796H112.867V39.6796H110.027V44.8596H113.567V46.2696H108.057Z" fill="#FF441F"/>
<path d="M116.906 46.2696V32.1396H118.876V44.8596H122.486V46.2696H116.906Z" fill="#FF441F"/>
<path d="M125.678 46.2696V32.1396H127.618V46.2696H125.678Z" fill="#FF441F"/>
<path d="M134.107 46.2696L130.947 32.1396H132.797L135.027 42.5596L137.157 32.1396H138.957L135.837 46.2696H134.107Z" fill="#FF441F"/>
<path d="M142.197 46.2696V32.1396H147.677V33.6096H144.167V38.2796H147.007V39.6796H144.167V44.8596H147.707V46.2696H142.197Z" fill="#FF441F"/>
<path d="M151.047 46.2696V32.1396H153.887C154.827 32.1396 155.607 32.2596 156.227 32.5196C156.847 32.7696 157.297 33.1696 157.597 33.7196C157.897 34.2696 158.047 34.9996 158.047 35.8896C158.047 36.4396 157.987 36.9296 157.877 37.3796C157.757 37.8296 157.577 38.2096 157.317 38.5096C157.057 38.8196 156.727 39.0396 156.307 39.1796L158.317 46.2596H156.417L154.567 39.6296H153.027V46.2596H151.047V46.2696ZM153.017 38.2296H153.767C154.327 38.2296 154.777 38.1596 155.127 38.0196C155.477 37.8796 155.727 37.6396 155.897 37.3096C156.057 36.9696 156.137 36.4996 156.137 35.8996C156.137 35.0696 155.987 34.4796 155.687 34.1096C155.387 33.7396 154.787 33.5596 153.887 33.5596H153.017V38.2296Z" fill="#FF441F"/>
<path d="M164.007 46.2696V41.2796L160.957 32.1396H162.787L164.947 38.9596L167.077 32.1396H168.927L165.887 41.2796V46.2696H164.007Z" fill="#FF441F"/>
<path d="M120.976 67.0197C120.586 66.7197 120.396 66.3197 120.396 65.8297C120.396 65.7297 120.396 65.6597 120.406 65.6197H121.266C121.246 65.9297 121.346 66.1996 121.556 66.4196C121.766 66.6396 122.086 66.7597 122.526 66.7597C122.956 66.7597 123.306 66.6596 123.556 66.4596C123.816 66.2596 123.936 65.9796 123.936 65.6296C123.936 65.4096 123.876 65.2297 123.746 65.0797C123.626 64.9297 123.466 64.8096 123.286 64.7096C123.106 64.6096 122.856 64.4997 122.546 64.3797C122.166 64.2297 121.856 64.0796 121.626 63.9496C121.396 63.8196 121.196 63.6297 121.036 63.3997C120.876 63.1697 120.806 62.8797 120.816 62.5297C120.816 62.1597 120.916 61.8296 121.116 61.5396C121.316 61.2497 121.586 61.0297 121.936 60.8697C122.286 60.7097 122.686 60.6396 123.126 60.6396C123.556 60.6396 123.936 60.7096 124.256 60.8596C124.576 61.0096 124.806 61.2097 124.966 61.4697C125.126 61.7297 125.196 62.0297 125.176 62.3497H124.266C124.276 62.1797 124.246 62.0197 124.156 61.8697C124.066 61.7197 123.936 61.5896 123.756 61.4996C123.576 61.3996 123.346 61.3596 123.076 61.3596C122.656 61.3596 122.326 61.4597 122.076 61.6497C121.826 61.8397 121.696 62.1096 121.696 62.4496C121.696 62.6496 121.756 62.8196 121.876 62.9596C121.996 63.0996 122.146 63.2296 122.326 63.3196C122.506 63.4196 122.746 63.5397 123.066 63.6697C123.446 63.8297 123.756 63.9797 123.986 64.1197C124.226 64.2597 124.426 64.4396 124.596 64.6696C124.766 64.8996 124.846 65.1896 124.846 65.5296C124.846 65.8996 124.746 66.2297 124.556 66.5197C124.366 66.8097 124.086 67.0396 123.736 67.2096C123.376 67.3796 122.966 67.4596 122.486 67.4596C121.866 67.4696 121.356 67.3197 120.976 67.0197Z" fill="#FF441F"/>
<path d="M129.627 61.4097L129.227 63.6997H131.647L131.527 64.3697H129.107L128.687 66.7197H131.407L131.287 67.4097H127.697L128.887 60.7197H132.467L132.347 61.4097H129.627Z" fill="#FF441F"/>
<path d="M139.357 61.1597C139.697 61.4497 139.867 61.8297 139.867 62.3097C139.867 62.3897 139.857 62.5197 139.827 62.6897C139.747 63.1497 139.537 63.5597 139.217 63.9097C138.887 64.2597 138.457 64.4897 137.907 64.6097L139.087 67.4097H138.047L136.937 64.6797H135.897L135.407 67.4097H134.537L135.727 60.7297H137.877C138.517 60.7297 139.017 60.8697 139.357 61.1597ZM138.957 62.3697C138.957 62.0597 138.857 61.8297 138.657 61.6597C138.457 61.4897 138.147 61.4097 137.737 61.4097H136.467L136.017 63.9697H137.297C137.767 63.9697 138.147 63.8497 138.417 63.6197C138.687 63.3897 138.867 63.0797 138.937 62.6897C138.947 62.5697 138.957 62.4697 138.957 62.3697Z" fill="#FF441F"/>
<path d="M143.856 60.7297L144.916 66.4697L148.026 60.7297H148.966L145.256 67.4097H144.246L142.906 60.7297H143.856Z" fill="#FF441F"/>
<path d="M152.716 60.7297L151.526 67.4097H150.656L151.846 60.7297H152.716Z" fill="#FF441F"/>
<path d="M155.947 62.2996C156.337 61.7796 156.807 61.3697 157.367 61.0797C157.927 60.7897 158.507 60.6396 159.127 60.6396C159.857 60.6396 160.457 60.8197 160.947 61.1697C161.427 61.5197 161.737 62.0196 161.877 62.6596H160.837C160.727 62.2696 160.507 61.9696 160.197 61.7496C159.887 61.5396 159.487 61.4296 158.997 61.4296C158.527 61.4296 158.097 61.5396 157.687 61.7496C157.277 61.9596 156.937 62.2697 156.657 62.6697C156.377 63.0697 156.187 63.5296 156.097 64.0496C156.067 64.2196 156.047 64.4097 156.047 64.6197C156.047 65.2497 156.227 65.7396 156.597 66.1096C156.967 66.4796 157.457 66.6597 158.067 66.6597C158.557 66.6597 158.987 66.5597 159.377 66.3397C159.767 66.1197 160.087 65.8297 160.337 65.4397H161.377C161.017 66.0797 160.527 66.5696 159.927 66.9196C159.327 67.2696 158.657 67.4397 157.927 67.4397C157.387 67.4397 156.897 67.3296 156.477 67.0996C156.057 66.8696 155.727 66.5496 155.487 66.1396C155.247 65.7296 155.137 65.2497 155.137 64.7197C155.137 64.4997 155.157 64.2696 155.197 64.0396C155.307 63.4096 155.557 62.8196 155.947 62.2996Z" fill="#FF441F"/>
<path d="M166.176 61.4097L165.776 63.6997H168.196L168.076 64.3697H165.656L165.236 66.7197H167.956L167.836 67.4097H164.246L165.436 60.7197H169.016L168.896 61.4097H166.176Z" fill="#FF441F"/>
<path d="M53.3072 50.8596H0.367188V52.6096H53.3072V50.8596Z" fill="#FF441F"/>
<path d="M170.627 50.8596H93.0469V52.6096H170.627V50.8596Z" fill="#FF441F"/>
<path d="M77.618 56.9797C77.388 56.9797 77.158 56.8597 77.028 56.6397L66.148 38.0397C65.958 37.7197 66.068 37.2997 66.388 37.1097C66.708 36.9197 67.128 37.0297 67.318 37.3497L78.208 55.9497C78.398 56.2697 78.288 56.6897 77.968 56.8797C77.858 56.9497 77.738 56.9797 77.618 56.9797Z" fill="white"/>
<path d="M82.7667 51.3496C82.5367 51.3496 82.3067 51.2296 82.1767 51.0096L71.2867 32.4096C71.0967 32.0896 71.2067 31.6696 71.5267 31.4796C71.8467 31.2896 72.2667 31.3996 72.4567 31.7196L83.3467 50.3196C83.5367 50.6396 83.4267 51.0596 83.1067 51.2496C83.0067 51.3196 82.8867 51.3496 82.7667 51.3496Z" fill="white"/>
</svg>
