<svg width="227" height="44" viewBox="0 0 227 44" fill="none" xmlns="http://www.w3.org/2000/svg">
<path d="M30.8771 7.04523C35.1228 2.48202 42.532 -0.606416 45.53 2.18442C48.5281 4.97525 45.9797 12.5872 41.734 17.1482C39.0027 20.0824 36.2383 21.0369 33.8134 20.6026C32.4488 20.3579 31.049 20.7415 30.1055 21.7555L10.5432 42.775C9.87084 43.498 8.76421 43.7052 7.92872 43.1806C6.80225 42.4752 6.64353 40.9695 7.50327 40.0481L27.1163 18.9713C28.0598 17.9573 28.3419 16.5332 28.0002 15.1885C27.3918 12.8055 28.1457 9.97936 30.8771 7.04523Z" fill="#142328"/>
<path d="M42.9066 11.4277C42.6068 11.9656 42.2166 12.4484 41.8286 12.9224C41.4429 13.4007 41.0372 13.8614 40.6206 14.309C39.7829 15.1995 38.8879 16.0372 37.8959 16.7294C37.4043 17.0822 36.8841 17.3908 36.3396 17.6333C35.7973 17.8846 35.2219 18.0587 34.6355 18.1469C33.4539 18.3365 32.2327 17.997 31.1855 17.3357C31.6507 17.7457 32.1952 18.0742 32.7882 18.299C33.3856 18.5195 34.0381 18.5922 34.6774 18.5393C35.9648 18.4335 37.1596 17.8647 38.1847 17.1417C39.2142 16.4098 40.1202 15.5302 40.9138 14.5691C41.3128 14.0907 41.6831 13.5881 42.027 13.0701C42.1968 12.8099 42.3577 12.5432 42.512 12.272C42.6619 12.0009 42.8206 11.7297 42.9066 11.4277Z" fill="white"/>
<path d="M1.61698 6.58208L8.88065 13.9119L9.62575 13.1734L2.36429 5.84359C2.06669 5.54378 2.06889 5.0588 2.3687 4.76341C2.6685 4.46581 3.15348 4.46801 3.44888 4.76781L10.7125 12.0976L11.4599 11.3569L4.19619 4.02712C3.89859 3.72731 3.90079 3.24233 4.2006 2.94694C4.5004 2.64934 4.98538 2.65154 5.28078 2.95135L12.5444 10.2811L13.2895 9.54265L6.02809 2.21286C5.73049 1.91305 5.73269 1.42807 6.0325 1.13268L6.16917 0.996C6.46898 0.698399 6.95396 0.700603 7.24935 1.00041L19.279 13.1425C20.2336 14.1059 20.6965 15.369 20.6745 16.6256C20.6546 17.8005 21.0867 18.938 21.9134 19.7735L41.8989 39.9442C42.5933 40.6452 42.7564 41.7585 42.1987 42.5741C41.447 43.6698 39.9369 43.769 39.0508 42.874L19.0123 22.6481C18.1856 21.8126 17.0525 21.3695 15.8776 21.3806C14.621 21.3916 13.3623 20.9154 12.4078 19.9521L0.37808 7.80996C0.0804789 7.51015 0.0826833 7.02517 0.382489 6.72978L0.534596 6.57767C0.836605 6.28007 1.32158 6.28227 1.61698 6.58208Z" fill="#142328"/>
<path d="M18.7143 17.459C18.8972 16.7492 18.9435 16.0019 18.8245 15.2568C18.7672 14.882 18.6437 14.5117 18.4475 14.1656C18.4012 14.0774 18.3483 13.9936 18.2778 13.9165C18.2116 13.8393 18.1565 13.7533 18.0728 13.6894C17.9978 13.6233 17.914 13.5483 17.8413 13.4932L17.6297 13.3345C17.0631 12.9068 16.5142 12.4395 15.9543 11.9854C15.3966 11.5268 14.8366 11.0683 14.248 10.634C14.6889 11.2182 15.1761 11.7583 15.6898 12.2763C16.2012 12.7944 16.7435 13.2838 17.3255 13.7357L17.5503 13.8988C17.6231 13.9517 17.6716 14.0002 17.7355 14.0509C17.8501 14.1567 17.9559 14.278 18.0397 14.4169C18.2205 14.688 18.3439 15.0077 18.4387 15.3427C18.6217 16.0129 18.69 16.7293 18.7143 17.459Z" fill="white"/>
<path d="M90.8757 2.3208H78.5506C77.0097 2.3208 75.7598 3.57072 75.7598 5.11164C75.7598 6.65255 77.0097 7.90247 78.5506 7.90247H90.8757C92.4166 7.90247 93.6665 6.65255 93.6665 5.11164C93.6665 3.57072 92.4166 2.3208 90.8757 2.3208Z" fill="#FC7E10"/>
<path d="M83.5486 13.9497C82.0077 13.9497 80.7578 15.1996 80.7578 16.7405C80.7578 18.2815 82.0077 19.5314 83.5486 19.5314C85.0896 19.5314 86.3395 18.2815 86.3395 16.7405C86.3395 15.1996 85.0896 13.9497 83.5486 13.9497Z" fill="#FC7E10"/>
<path d="M58.0761 37.2815H54.3903C52.8493 37.2815 51.5994 36.0316 51.5994 34.4906V34.1644C51.5994 32.6235 52.8493 31.3736 54.3903 31.3736H66.4486C66.5522 31.3736 66.6558 31.3802 66.755 31.3912C68.1526 31.2391 69.2394 30.0553 69.2394 28.618V28.2917C69.2394 26.7508 67.9895 25.5009 66.4486 25.5009H61.0168V25.4546C59.6413 25.2827 58.5743 24.1099 58.5743 22.688V22.3618C58.5743 20.9399 59.6391 19.7671 61.0168 19.5952V19.5489H73.062C74.6029 19.5489 75.8528 18.299 75.8528 16.758V16.4318C75.8528 14.8909 74.6029 13.641 73.062 13.641H61.0168V13.6189H54.4476C52.9067 13.6189 51.6567 12.369 51.6567 10.8281V10.5018C51.6567 8.9609 52.9067 7.71098 54.4476 7.71098H61.0168V7.68893H67.8176C69.3585 7.68893 70.6084 6.43901 70.6084 4.8981V4.57184C70.6084 3.03093 69.3585 1.78101 67.8176 1.78101H61.0168H53.5658H44.9905C45.1801 1.90005 45.3586 2.03231 45.524 2.18442C48.522 4.97526 45.9737 12.5872 41.7279 17.1482C38.9966 20.0824 36.2322 21.0369 33.8073 20.6026C32.4428 20.3579 31.0429 20.7415 30.0994 21.7555L27.0859 24.9939L41.8976 39.9423C42.592 40.6433 42.7552 41.7565 42.1974 42.5722C42.0255 42.8213 41.8139 43.0175 41.5802 43.163H58.0805C59.7052 43.163 61.0212 41.8469 61.0212 40.2222C61.0212 38.5975 59.7008 37.2815 58.0761 37.2815Z" fill="#FC7E10"/>
<path d="M81.224 25.5779H75.0604C73.5194 25.5779 72.2695 26.8278 72.2695 28.3687C72.2695 29.9096 73.5194 31.1595 75.0604 31.1595H81.224C82.7649 31.1595 84.0148 29.9096 84.0148 28.3687C84.0148 26.8256 82.7649 25.5779 81.224 25.5779Z" fill="#FC7E10"/>
<path d="M72.851 37.2043H66.6873C65.1464 37.2043 63.8965 38.4543 63.8965 39.9952C63.8965 41.5361 65.1464 42.786 66.6873 42.786H72.851C74.3919 42.786 75.6418 41.5361 75.6418 39.9952C75.6418 38.4543 74.3919 37.2043 72.851 37.2043Z" fill="#FC7E10"/>
<path d="M104.271 12.3489H115.295L114.409 16.5395H107.635L105.831 24.9804H111.658L110.772 29.1865H104.945L102.258 41.818H98.0078L104.271 12.3489Z" fill="#142328"/>
<path d="M124.59 18.0717C124.641 17.8226 124.665 17.5955 124.665 17.3949C124.665 16.5131 124.169 16.0723 123.18 16.0723H123.149C121.916 16.0833 121.16 16.749 120.88 18.0695L120.041 22.0353H115.79L116.63 18.0695C117.512 13.945 119.99 11.8816 124.064 11.8816C127.408 11.8816 129.079 13.2726 129.079 16.0568C129.079 16.6675 128.999 17.3376 128.838 18.0695L125.009 36.0909C124.128 40.2264 121.654 42.2942 117.589 42.2942C114.234 42.2854 112.559 40.8833 112.559 38.0881C112.559 37.4863 112.638 36.8205 112.799 36.0909L113.85 31.1507C114.721 27.0262 116.718 24.9584 119.842 24.9474C121.193 24.9474 122.221 25.2626 122.922 25.8931L124.59 18.0717ZM117.051 36.0931C117.001 36.3334 116.976 36.5582 116.976 36.7698C116.976 37.6516 117.481 38.0925 118.493 38.0925C119.725 38.0925 120.481 37.4268 120.761 36.0953L121.813 31.1397C121.864 30.8994 121.888 30.6789 121.888 30.4783C121.888 29.5966 121.387 29.1557 120.387 29.1557C119.145 29.1557 118.385 29.8214 118.103 31.1529L117.051 36.0931Z" fill="#142328"/>
<path d="M132.148 18.0714C133.029 13.9469 135.503 11.8835 139.568 11.8835C142.921 11.8835 144.598 13.2812 144.598 16.0742C144.598 16.676 144.519 17.3418 144.358 18.0714L143.516 22.0372H139.266L140.108 18.0714C140.159 17.8312 140.183 17.6107 140.183 17.4101C140.183 16.5283 139.682 16.083 138.682 16.0742H138.651C137.429 16.0742 136.678 16.7399 136.398 18.0714L135.827 20.7454C135.796 20.8865 135.783 21.0364 135.783 21.1951C135.783 22.4164 136.784 23.8736 138.787 25.5666C140.591 27.0788 141.49 28.8358 141.49 30.8374C141.49 31.329 141.435 31.8382 141.325 32.3695L140.529 36.095C139.647 40.2306 137.174 42.2983 133.109 42.2983C129.754 42.2895 128.078 40.8875 128.078 38.0923C128.078 37.4904 128.157 36.8247 128.318 36.095L129.158 32.1292H133.408L132.569 36.095C132.518 36.3353 132.494 36.5602 132.494 36.7718C132.494 37.6536 132.998 38.0945 134.01 38.0945C135.243 38.0945 135.999 37.4287 136.279 36.0972L137 32.7332C137.039 32.5635 137.059 32.3938 137.059 32.2218C137.059 30.9212 136.063 29.4288 134.07 27.7468C132.278 26.2455 131.38 24.482 131.38 22.4605C131.38 21.9402 131.44 21.4002 131.561 20.838L132.148 18.0714Z" fill="#142328"/>
<path d="M154.824 12.3488H158.113L157.226 16.5394H153.937L148.561 41.8157H144.311L149.687 16.5394H146.638L147.525 12.3488H150.573L152.601 2.79688H156.852L154.824 12.3488Z" fill="#142328"/>
<path d="M167.993 12.3489H179.018L178.132 16.5395H171.357L169.554 24.9804H175.38L174.494 29.1865H168.668L165.981 41.818H161.73L167.993 12.3489Z" fill="#FC7E10"/>
<path d="M188.734 36.0928C187.852 40.2173 185.374 42.2851 181.3 42.2961C177.956 42.2961 176.285 40.8985 176.285 38.1055C176.285 37.5059 176.365 36.8335 176.525 36.0928L180.355 18.0714C181.236 13.9469 183.71 11.8835 187.775 11.8835C191.128 11.8835 192.805 13.2812 192.805 16.0742C192.805 16.676 192.726 17.3418 192.565 18.0714L188.734 36.0928ZM188.315 18.0714C188.366 17.8312 188.39 17.6107 188.39 17.4101C188.39 16.5283 187.889 16.083 186.889 16.0742H186.858C185.636 16.0742 184.885 16.7399 184.605 18.0714L180.776 36.0928C180.725 36.3441 180.701 36.569 180.701 36.7696C180.701 37.6514 181.201 38.0923 182.202 38.0923C183.443 38.0923 184.204 37.4265 184.486 36.095L188.315 18.0714Z" fill="#FC7E10"/>
<path d="M204.249 36.0928C203.368 40.2173 200.89 42.2851 196.816 42.2961C193.472 42.2961 191.801 40.8985 191.801 38.1055C191.801 37.5059 191.88 36.8335 192.041 36.0928L195.87 18.0714C196.752 13.9469 199.225 11.8835 203.29 11.8835C206.643 11.8835 208.321 13.2812 208.321 16.0742C208.321 16.676 208.242 17.3418 208.081 18.0714L204.249 36.0928ZM203.828 18.0714C203.879 17.8312 203.903 17.6107 203.903 17.4101C203.903 16.5283 203.403 16.083 202.402 16.0742H202.371C201.15 16.0742 200.398 16.7399 200.118 18.0714L196.289 36.0928C196.238 36.3441 196.214 36.569 196.214 36.7696C196.214 37.6514 196.715 38.0923 197.715 38.0923C198.956 38.0923 199.717 37.4265 199.999 36.095L203.828 18.0714Z" fill="#FC7E10"/>
<path d="M222.589 2.79688H226.839L219.765 36.0929C218.883 40.2174 216.405 42.2852 212.332 42.2962C208.987 42.2962 207.316 40.8986 207.316 38.1056C207.316 37.506 207.396 36.8336 207.557 36.0929L211.386 18.0847C212.257 13.9602 214.254 11.8924 217.378 11.8814C218.729 11.8814 219.756 12.1967 220.457 12.8271L222.589 2.79688ZM219.344 18.0715C219.395 17.8312 219.419 17.6108 219.419 17.4102C219.419 16.5284 218.918 16.0875 217.918 16.0875C216.677 16.0875 215.916 16.7533 215.634 18.0847L211.805 36.0929C211.754 36.3442 211.73 36.5691 211.73 36.7697C211.73 37.6514 212.23 38.0923 213.231 38.0923C214.472 38.0923 215.233 37.4266 215.515 36.0951L219.344 18.0715Z" fill="#FC7E10"/>
</svg>
