<svg width="211" height="62" viewBox="0 0 211 62" fill="none" xmlns="http://www.w3.org/2000/svg">
<path d="M203.131 61.5286H8.03621C3.74608 61.5286 0.232422 58.098 0.232422 53.9094V8.19443C0.232422 4.0058 3.74608 0.575273 8.03621 0.575273H203.131C207.421 0.575273 210.935 4.0058 210.935 8.19443V53.9094C210.935 58.098 207.421 61.5286 203.131 61.5286Z" fill="black"/>
<path d="M203.131 1.79624C206.744 1.79624 209.684 4.66676 209.684 8.19443V53.9094C209.684 57.4371 206.744 60.3076 203.131 60.3076H8.03621C4.42305 60.3076 1.48298 57.4371 1.48298 53.9094V8.19443C1.48298 4.66676 4.42305 1.79624 8.03621 1.79624H203.131ZM203.131 0.575273H8.03621C3.74608 0.575273 0.232422 4.0058 0.232422 8.19443V53.9094C0.232422 58.098 3.74608 61.5286 8.03621 61.5286H203.131C207.421 61.5286 210.935 58.098 210.935 53.9094V8.19443C210.935 4.0058 207.421 0.575273 203.131 0.575273Z" fill="#A6A6A6"/>
<path d="M74.2394 16.1853C74.2394 17.4577 73.8492 18.4767 73.0806 19.2367C72.1968 20.1377 71.0457 20.591 69.6352 20.591C68.2871 20.591 67.136 20.1301 66.1918 19.2215C65.2456 18.2996 64.7734 17.1681 64.7734 15.8138C64.7734 14.4595 65.2456 13.3281 66.1918 12.4138C67.136 11.4976 68.2871 11.0366 69.6352 11.0366C70.3063 11.0366 70.9462 11.1719 71.5569 11.4233C72.1656 11.6766 72.6611 12.0195 73.0201 12.4424L72.2046 13.2462C71.5783 12.5243 70.7258 12.1681 69.6352 12.1681C68.6519 12.1681 67.7994 12.5033 67.0756 13.1795C66.3596 13.8576 66.0006 14.7357 66.0006 15.8138C66.0006 16.8919 66.3596 17.7777 67.0756 18.4558C67.7994 19.1244 68.6519 19.4672 69.6352 19.4672C70.679 19.4672 71.5569 19.1244 72.2495 18.4482C72.706 18.0005 72.9655 17.3834 73.0337 16.5948H69.6352V15.4938H74.1692C74.2238 15.7319 74.2394 15.9624 74.2394 16.1853Z" fill="white" stroke="white" stroke-width="0.16" stroke-miterlimit="10"/>
<path d="M81.4334 12.368H77.1744V15.2633H81.0139V16.3643H77.1744V19.2595H81.4334V20.3815H75.9688V11.2461H81.4334V12.368Z" fill="white" stroke="white" stroke-width="0.16" stroke-miterlimit="10"/>
<path d="M86.5094 20.3815H85.3037V12.368H82.6914V11.2461H89.1237V12.368H86.5094V20.3815Z" fill="white" stroke="white" stroke-width="0.16" stroke-miterlimit="10"/>
<path d="M93.7773 20.3815V11.2461H94.9811V20.3815H93.7773Z" fill="white" stroke="white" stroke-width="0.16" stroke-miterlimit="10"/>
<path d="M100.318 20.3812H99.1221V12.3678H96.5V11.2458H102.94V12.3678H100.318V20.3812Z" fill="white" stroke="white" stroke-width="0.16" stroke-miterlimit="10"/>
<path d="M115.118 19.2063C114.195 20.1301 113.052 20.591 111.688 20.591C110.316 20.591 109.173 20.1301 108.25 19.2063C107.33 18.2843 106.871 17.1529 106.871 15.8138C106.871 14.4748 107.33 13.3433 108.25 12.4214C109.173 11.4976 110.316 11.0366 111.688 11.0366C113.044 11.0366 114.187 11.4976 115.11 12.429C116.039 13.3586 116.497 14.4824 116.497 15.8138C116.497 17.1529 116.039 18.2843 115.118 19.2063ZM109.142 18.4405C109.837 19.1244 110.681 19.4672 111.688 19.4672C112.687 19.4672 113.539 19.1244 114.226 18.4405C114.919 17.7567 115.27 16.8786 115.27 15.8138C115.27 14.7491 114.919 13.8709 114.226 13.1871C113.539 12.5033 112.687 12.1604 111.688 12.1604C110.681 12.1604 109.837 12.5033 109.142 13.1871C108.449 13.8709 108.098 14.7491 108.098 15.8138C108.098 16.8786 108.449 17.7567 109.142 18.4405Z" fill="white" stroke="white" stroke-width="0.16" stroke-miterlimit="10"/>
<path d="M118.188 20.3812V11.2458H119.651L124.2 18.3507H124.253L124.2 16.5945V11.2458H125.404V20.3812H124.148L119.383 12.9259H119.331L119.383 14.6897V20.3812H118.188Z" fill="white" stroke="white" stroke-width="0.16" stroke-miterlimit="10"/>
<path d="M106.574 33.7224C102.908 33.7224 99.9133 36.4463 99.9133 40.2044C99.9133 43.9321 102.908 46.6845 106.574 46.6845C110.247 46.6845 113.242 43.9321 113.242 40.2044C113.242 36.4463 110.247 33.7224 106.574 33.7224ZM106.574 44.1321C104.562 44.1321 102.832 42.5111 102.832 40.2044C102.832 37.8673 104.562 36.2749 106.574 36.2749C108.585 36.2749 110.324 37.8673 110.324 40.2044C110.324 42.5111 108.585 44.1321 106.574 44.1321ZM92.0412 33.7224C88.3676 33.7224 85.3807 36.4463 85.3807 40.2044C85.3807 43.9321 88.3676 46.6845 92.0412 46.6845C95.7129 46.6845 98.7018 43.9321 98.7018 40.2044C98.7018 36.4463 95.7129 33.7224 92.0412 33.7224ZM92.0412 44.1321C90.0279 44.1321 88.2915 42.5111 88.2915 40.2044C88.2915 37.8673 90.0279 36.2749 92.0412 36.2749C94.0527 36.2749 95.7832 37.8673 95.7832 40.2044C95.7832 42.5111 94.0527 44.1321 92.0412 44.1321ZM74.7481 35.7091V38.4635H81.4847C81.2876 40.0025 80.7609 41.134 79.9532 41.9226C78.9699 42.8749 77.4384 43.9321 74.7481 43.9321C70.6023 43.9321 67.3559 40.6654 67.3559 36.6177C67.3559 32.57 70.6023 29.3033 74.7481 29.3033C76.9897 29.3033 78.6207 30.1586 79.8244 31.2672L81.8125 29.3262C80.1288 27.7566 77.8891 26.5509 74.7481 26.5509C69.063 26.5509 64.2852 31.0672 64.2852 36.6177C64.2852 42.1683 69.063 46.6845 74.7481 46.6845C77.8208 46.6845 80.1288 45.7017 81.9432 43.8578C83.8024 42.0426 84.3818 39.4901 84.3818 37.4292C84.3818 36.7891 84.3272 36.2006 84.2297 35.7091H74.7481ZM145.462 37.8444C144.914 36.3949 143.222 33.7224 139.777 33.7224C136.363 33.7224 133.52 36.3491 133.52 40.2044C133.52 43.835 136.334 46.6845 140.105 46.6845C143.154 46.6845 144.914 44.8693 145.638 43.8121L143.375 42.3397C142.62 43.4178 141.591 44.1321 140.105 44.1321C138.628 44.1321 137.569 43.4711 136.89 42.1683L145.768 38.5816L145.462 37.8444ZM136.41 40.0025C136.334 37.5034 138.398 36.2234 139.876 36.2234C141.035 36.2234 142.019 36.7891 142.346 37.5987L136.41 40.0025ZM129.193 46.2902H132.112V27.2423H129.193V46.2902ZM124.413 35.1663H124.316C123.66 34.4082 122.41 33.7224 120.826 33.7224C117.501 33.7224 114.462 36.572 114.462 40.2254C114.462 43.8578 117.501 46.6845 120.826 46.6845C122.41 46.6845 123.66 45.9931 124.316 45.2121H124.413V46.1417C124.413 48.6198 123.057 49.9512 120.87 49.9512C119.087 49.9512 117.981 48.6941 117.525 47.6369L114.986 48.6712C115.718 50.3893 117.655 52.5037 120.87 52.5037C124.292 52.5037 127.18 50.5379 127.18 45.755V34.1167H124.413V35.1663ZM121.075 44.1321C119.064 44.1321 117.38 42.4883 117.38 40.2254C117.38 37.9415 119.064 36.2749 121.075 36.2749C123.057 36.2749 124.62 37.9415 124.62 40.2254C124.62 42.4883 123.057 44.1321 121.075 44.1321ZM159.126 27.2423H152.146V46.2902H155.057V39.073H159.126C162.359 39.073 165.529 36.7891 165.529 33.1567C165.529 29.5262 162.351 27.2423 159.126 27.2423ZM159.203 36.4234H155.057V29.8919H159.203C161.376 29.8919 162.617 31.6538 162.617 33.1567C162.617 34.631 161.376 36.4234 159.203 36.4234ZM177.196 33.6862C175.093 33.6862 172.906 34.5929 172.007 36.6025L174.59 37.6596C175.146 36.6025 176.168 36.2596 177.249 36.2596C178.759 36.2596 180.29 37.1453 180.314 38.7092V38.9092C179.787 38.612 178.659 38.172 177.272 38.172C174.49 38.172 171.655 39.6673 171.655 42.4578C171.655 45.0102 173.934 46.6541 176.496 46.6541C178.454 46.6541 179.535 45.7912 180.214 44.7874H180.314V46.2598H183.125V38.953C183.125 35.5758 180.542 33.6862 177.196 33.6862ZM176.845 44.1245C175.893 44.1245 174.566 43.6635 174.566 42.5111C174.566 41.0368 176.221 40.4711 177.653 40.4711C178.934 40.4711 179.535 40.7473 180.314 41.1111C180.085 42.8749 178.531 44.1245 176.845 44.1245ZM193.367 34.1034L190.022 42.3607H189.922L186.463 34.1034H183.324L188.521 45.6426L185.556 52.0637H188.597L196.606 34.1034H193.367ZM167.129 46.2902H170.048V27.2423H167.129V46.2902Z" fill="white"/>
<path d="M16.5207 12.0632C16.0622 12.5317 15.7969 13.2613 15.7969 14.2061V47.9056C15.7969 48.8504 16.0622 49.5799 16.5207 50.0485L16.6338 50.1514L35.9755 31.2749V30.8292L16.6338 11.9527L16.5207 12.0632Z" fill="url(#paint0_linear_349_4857)"/>
<path d="M42.4147 37.5701L35.9746 31.2747V30.829L42.4225 24.5337L42.5669 24.6156L50.2029 28.8576C52.3821 30.0614 52.3821 32.0424 50.2029 33.2538L42.5669 37.4882L42.4147 37.5701Z" fill="url(#paint1_linear_349_4857)"/>
<path d="M42.5666 37.4885L35.9744 31.0522L16.5195 50.0487C17.2433 50.7915 18.4237 50.8811 19.7659 50.1382L42.5666 37.4885Z" fill="url(#paint2_linear_349_4857)"/>
<path d="M42.5666 24.6155L19.7659 11.9658C18.4237 11.2305 17.2433 11.32 16.5195 12.0629L35.9744 31.0518L42.5666 24.6155Z" fill="url(#paint3_linear_349_4857)"/>
<defs>
<linearGradient id="paint0_linear_349_4857" x1="34.2582" y1="48.2566" x2="8.69196" y2="22.0708" gradientUnits="userSpaceOnUse">
<stop stop-color="#00A0FF"/>
<stop offset="0.0066" stop-color="#00A1FF"/>
<stop offset="0.2601" stop-color="#00BEFF"/>
<stop offset="0.5122" stop-color="#00D2FF"/>
<stop offset="0.7604" stop-color="#00DFFF"/>
<stop offset="1" stop-color="#00E3FF"/>
</linearGradient>
<linearGradient id="paint1_linear_349_4857" x1="53.0405" y1="31.0497" x2="15.2751" y2="31.0497" gradientUnits="userSpaceOnUse">
<stop stop-color="#FFE000"/>
<stop offset="0.4087" stop-color="#FFBD00"/>
<stop offset="0.7754" stop-color="#FFA500"/>
<stop offset="1" stop-color="#FF9C00"/>
</linearGradient>
<linearGradient id="paint2_linear_349_4857" x1="38.9819" y1="27.5533" x2="4.31204" y2="-7.95668" gradientUnits="userSpaceOnUse">
<stop stop-color="#FF3A44"/>
<stop offset="1" stop-color="#C31162"/>
</linearGradient>
<linearGradient id="paint3_linear_349_4857" x1="11.6223" y1="61.2599" x2="27.104" y2="45.4033" gradientUnits="userSpaceOnUse">
<stop stop-color="#32A071"/>
<stop offset="0.0685" stop-color="#2DA771"/>
<stop offset="0.4762" stop-color="#15CF74"/>
<stop offset="0.8009" stop-color="#06E775"/>
<stop offset="1" stop-color="#00F076"/>
</linearGradient>
</defs>
</svg>
