<svg width="28" height="28" viewBox="0 0 28 28" fill="none" xmlns="http://www.w3.org/2000/svg">
<path d="M25.7294 20.8376C24.7943 19.8955 22.5298 18.5206 21.431 17.9665C20.0002 17.2458 19.8825 17.1869 18.7579 18.0225C18.0077 18.5801 17.509 19.0782 16.6311 18.891C15.7532 18.7037 13.8454 17.648 12.175 15.9828C10.5045 14.3177 9.38754 12.3546 9.19971 11.4796C9.01188 10.6046 9.51826 10.1118 10.0706 9.3599C10.849 8.30005 10.7901 8.1234 10.1247 6.6926C9.60599 5.57975 8.19108 3.33638 7.24545 2.40606C6.23388 1.40685 6.23388 1.5835 5.58207 1.85435C5.05141 2.07762 4.54232 2.34902 4.06117 2.66514C3.11908 3.29104 2.59621 3.81096 2.23056 4.59231C1.86491 5.37366 1.70063 7.20545 3.58895 10.6359C5.47726 14.0663 6.80208 15.8203 9.54416 18.5548C12.2862 21.2892 14.3948 22.7594 17.4772 24.4882C21.2903 26.6238 22.7529 26.2075 23.5366 25.8424C24.3203 25.4774 24.8426 24.9592 25.4697 24.0171C25.7866 23.5368 26.0586 23.0283 26.2823 22.498C26.5537 21.8486 26.7303 21.8486 25.7294 20.8376Z" stroke="#E1B168" stroke-width="2.1" stroke-miterlimit="10"/>
</svg>
