<svg width="212" height="62" viewBox="0 0 212 62" fill="none" xmlns="http://www.w3.org/2000/svg">
<path d="M210.052 54.4991C210.052 57.7474 207.366 60.3785 204.044 60.3785H7.42042C4.09972 60.3785 1.4043 57.7474 1.4043 54.4991V7.61246C1.4043 4.36572 4.09972 1.72534 7.42042 1.72534H204.042C207.366 1.72534 210.051 4.36572 210.051 7.61246L210.052 54.4991Z" fill="black"/>
<path d="M203.41 1.79624C207.028 1.79624 209.972 4.66676 209.972 8.19443V53.9094C209.972 57.4371 207.028 60.3076 203.41 60.3076H8.04695C4.42882 60.3076 1.4847 57.4371 1.4847 53.9094V8.19443C1.4847 4.66676 4.42882 1.79624 8.04695 1.79624H203.41ZM203.41 0.575268H8.04695C3.75091 0.575268 0.232422 4.0058 0.232422 8.19443V53.9094C0.232422 58.098 3.75091 61.5286 8.04695 61.5286H203.41C207.706 61.5286 211.225 58.098 211.225 53.9094V8.19443C211.225 4.0058 207.706 0.575268 203.41 0.575268Z" fill="#A6A6A6"/>
<path d="M47.3193 30.7224C47.274 25.8111 51.4438 23.4217 51.6345 23.3105C49.2729 19.9535 45.6126 19.4948 44.3263 19.4582C41.2521 19.1428 38.2701 21.2518 36.704 21.2518C35.1067 21.2518 32.6952 19.4887 30.0961 19.5405C26.7514 19.5908 23.6225 21.4788 21.9064 24.4107C18.3649 30.3887 21.0062 39.1736 24.3993 44.0057C26.0966 46.3722 28.0799 49.0145 30.6759 48.9215C33.2156 48.8194 34.1643 47.3429 37.2292 47.3429C40.2659 47.3429 41.1567 48.9215 43.8043 48.8621C46.53 48.8194 48.2461 46.4849 49.884 44.0971C51.8455 41.3847 52.6332 38.7134 52.6644 38.5763C52.6003 38.5549 47.3709 36.609 47.3193 30.7224Z" fill="white"/>
<path d="M42.318 16.2795C43.684 14.614 44.6186 12.348 44.3591 10.0486C42.3821 10.1339 39.9095 11.3819 38.4857 13.0109C37.226 14.4464 36.1007 16.7992 36.3914 19.0118C38.6123 19.1733 40.8926 17.9192 42.318 16.2795Z" fill="white"/>
<path d="M84.0749 48.5819H80.5255L78.5813 42.6252H71.8232L69.9712 48.5819H66.5156L73.2111 28.3027H77.3466L84.0749 48.5819ZM77.9952 40.1262L76.2369 34.8308C76.0509 34.2899 75.7024 33.0159 75.1882 31.0106H75.1257C74.9209 31.8731 74.5912 33.147 74.1379 34.8308L72.4109 40.1262H77.9952Z" fill="white"/>
<path d="M101.292 41.0907C101.292 43.5776 100.603 45.5433 99.2247 46.9864C97.99 48.271 96.4568 48.9125 94.6266 48.9125C92.6511 48.9125 91.232 48.2207 90.3677 46.837H90.3052V54.54H86.9731V38.7729C86.9731 37.2095 86.9309 35.6049 86.8496 33.9591H89.7801L89.966 36.2769H90.0286C91.1398 34.5306 92.8262 33.6589 95.0892 33.6589C96.8585 33.6589 98.3354 34.3401 99.517 35.7039C100.702 37.0693 101.292 38.8643 101.292 41.0907ZM97.8978 41.2095C97.8978 39.7863 97.5696 38.6129 96.91 37.6895C96.1895 36.7264 95.2221 36.2449 94.0093 36.2449C93.1872 36.2449 92.4401 36.5131 91.7728 37.0418C91.1038 37.5752 90.6662 38.2716 90.4615 39.1341C90.3583 39.5364 90.3068 39.8655 90.3068 40.1246V42.5627C90.3068 43.6263 90.6412 44.5239 91.3101 45.2568C91.9791 45.9898 92.848 46.3555 93.9171 46.3555C95.1721 46.3555 96.1489 45.8831 96.8475 44.9414C97.5477 43.9981 97.8978 42.7547 97.8978 41.2095Z" fill="white"/>
<path d="M118.543 41.0907C118.543 43.5776 117.854 45.5433 116.474 46.9864C115.24 48.271 113.707 48.9125 111.877 48.9125C109.902 48.9125 108.482 48.2207 107.62 46.837H107.557V54.54H104.225V38.7729C104.225 37.2095 104.183 35.6049 104.102 33.9591H107.032L107.218 36.2769H107.281C108.39 34.5306 110.077 33.6589 112.341 33.6589C114.109 33.6589 115.586 34.3401 116.77 35.7039C117.95 37.0693 118.543 38.8643 118.543 41.0907ZM115.148 41.2095C115.148 39.7863 114.818 38.6129 114.159 37.6895C113.438 36.7264 112.474 36.2449 111.26 36.2449C110.436 36.2449 109.691 36.5131 109.022 37.0418C108.353 37.5752 107.917 38.2716 107.712 39.1341C107.61 39.5364 107.557 39.8655 107.557 40.1246V42.5627C107.557 43.6263 107.892 44.5239 108.557 45.2568C109.226 45.9883 110.095 46.3555 111.167 46.3555C112.422 46.3555 113.399 45.8831 114.098 44.9414C114.798 43.9981 115.148 42.7547 115.148 41.2095Z" fill="white"/>
<path d="M137.829 42.895C137.829 44.62 137.215 46.0234 135.982 47.1069C134.627 48.2909 132.74 48.8821 130.316 48.8821C128.078 48.8821 126.284 48.4615 124.926 47.6189L125.698 44.911C127.161 45.7735 128.766 46.2063 130.515 46.2063C131.77 46.2063 132.747 45.9289 133.448 45.3773C134.147 44.8257 134.495 44.0851 134.495 43.1617C134.495 42.3388 134.208 41.6454 133.631 41.0831C133.058 40.5209 132.1 39.9982 130.762 39.5151C127.12 38.1909 125.301 36.2511 125.301 33.7002C125.301 32.0331 125.939 30.6662 127.215 29.6026C128.488 28.5374 130.185 28.0056 132.307 28.0056C134.2 28.0056 135.772 28.3271 137.027 28.9687L136.194 31.6171C135.022 30.9954 133.697 30.6845 132.214 30.6845C131.041 30.6845 130.126 30.9664 129.469 31.5272C128.914 32.0285 128.636 32.6396 128.636 33.3634C128.636 34.1649 128.953 34.8278 129.591 35.349C130.146 35.8305 131.154 36.3516 132.617 36.9139C134.406 37.6164 135.721 38.4378 136.566 39.3795C137.409 40.3182 137.829 41.4931 137.829 42.895Z" fill="white"/>
<path d="M148.846 36.3973H145.174V43.4968C145.174 45.3026 145.821 46.2047 147.118 46.2047C147.713 46.2047 148.207 46.1544 148.598 46.0538L148.69 48.5209C148.034 48.7601 147.17 48.8805 146.099 48.8805C144.783 48.8805 143.755 48.4889 143.012 47.7072C142.273 46.9239 141.901 45.6104 141.901 43.765V36.3942H139.713V33.9561H141.901V31.2787L145.174 30.3157V33.9561H148.846V36.3973Z" fill="white"/>
<path d="M165.416 41.15C165.416 43.3977 164.757 45.2431 163.441 46.6861C162.061 48.1719 160.229 48.9124 157.946 48.9124C155.745 48.9124 153.993 48.2008 152.686 46.7775C151.38 45.3543 150.727 43.5577 150.727 41.3923C150.727 39.1264 151.399 37.2704 152.747 35.8273C154.093 34.3827 155.909 33.6604 158.193 33.6604C160.393 33.6604 162.164 34.372 163.5 35.7968C164.779 37.1789 165.416 38.9633 165.416 41.15ZM161.959 41.2552C161.959 39.9066 161.664 38.75 161.065 37.7854C160.367 36.6182 159.368 36.0361 158.074 36.0361C156.734 36.0361 155.717 36.6197 155.018 37.7854C154.42 38.7515 154.124 39.9264 154.124 41.3161C154.124 42.6647 154.42 43.8213 155.018 44.7844C155.739 45.9516 156.745 46.5337 158.044 46.5337C159.316 46.5337 160.315 45.9394 161.035 44.7539C161.65 43.771 161.959 42.6022 161.959 41.2552Z" fill="white"/>
<path d="M176.249 36.8163C175.919 36.7569 175.567 36.7264 175.198 36.7264C174.026 36.7264 173.12 37.1577 172.482 38.0217C171.927 38.7836 171.649 39.7466 171.649 40.9093V48.5818H168.318L168.35 38.5642C168.35 36.8788 168.307 35.3443 168.225 33.9607H171.127L171.249 36.7584H171.341C171.693 35.7969 172.248 35.0228 173.007 34.4422C173.749 33.9195 174.551 33.6589 175.416 33.6589C175.723 33.6589 176.002 33.6803 176.249 33.7184V36.8163Z" fill="white"/>
<path d="M191.151 40.5787C191.151 41.1608 191.112 41.6515 191.029 42.0523H181.032C181.072 43.4969 181.554 44.6017 182.483 45.3636C183.325 46.0447 184.415 46.3861 185.752 46.3861C187.233 46.3861 188.583 46.156 189.797 45.6942L190.319 47.9495C188.9 48.553 187.225 48.8532 185.291 48.8532C182.966 48.8532 181.14 48.1857 179.812 46.8524C178.487 45.519 177.822 43.7285 177.822 41.4824C177.822 39.2774 178.44 37.4412 179.676 35.9768C180.97 34.4133 182.719 33.6316 184.919 33.6316C187.081 33.6316 188.717 34.4133 189.828 35.9768C190.708 37.2187 191.151 38.7547 191.151 40.5787ZM187.973 39.7361C187.995 38.773 187.778 37.941 187.326 37.2385C186.75 36.3349 185.863 35.8838 184.671 35.8838C183.582 35.8838 182.695 36.3242 182.019 37.208C181.464 37.9105 181.134 38.7532 181.032 39.7345H187.973V39.7361Z" fill="white"/>
<path d="M76.8912 15.827C76.8912 17.6205 76.3395 18.9706 75.2377 19.8773C74.2171 20.7139 72.7667 21.1329 70.8881 21.1329C69.9566 21.1329 69.1595 21.0933 68.4922 21.0141V11.2143C69.3627 11.0772 70.3005 11.0071 71.3132 11.0071C73.1028 11.0071 74.4516 11.3865 75.3612 12.1454C76.3802 13.0033 76.8912 14.23 76.8912 15.827ZM75.1642 15.8712C75.1642 14.7085 74.8485 13.817 74.2171 13.1953C73.5857 12.5751 72.6636 12.2642 71.4492 12.2642C70.9335 12.2642 70.4943 12.2978 70.1301 12.3679V19.8179C70.3317 19.8484 70.7006 19.8621 71.2367 19.8621C72.4901 19.8621 73.4575 19.5223 74.139 18.8426C74.8204 18.163 75.1642 17.1725 75.1642 15.8712Z" fill="white"/>
<path d="M86.0499 17.3934C86.0499 18.4982 85.7264 19.4033 85.0794 20.1134C84.4011 20.8433 83.5024 21.2075 82.3802 21.2075C81.2987 21.2075 80.4375 20.8586 79.7952 20.1576C79.1544 19.4582 78.834 18.5759 78.834 17.5122C78.834 16.3998 79.1638 15.4871 79.8264 14.7785C80.4891 14.0699 81.38 13.7148 82.5021 13.7148C83.5837 13.7148 84.4526 14.0638 85.1106 14.7632C85.7358 15.4429 86.0499 16.3206 86.0499 17.3934ZM84.351 17.4452C84.351 16.7823 84.2041 16.2139 83.9119 15.74C83.568 15.1671 83.0788 14.8806 82.4427 14.8806C81.7848 14.8806 81.2846 15.1671 80.9408 15.74C80.647 16.2139 80.5016 16.7915 80.5016 17.4741C80.5016 18.137 80.6485 18.7054 80.9408 19.1793C81.2956 19.7523 81.7894 20.0387 82.4271 20.0387C83.0523 20.0387 83.543 19.7477 83.8962 19.1641C84.1994 18.681 84.351 18.1081 84.351 17.4452Z" fill="white"/>
<path d="M98.327 13.8613L96.0217 21.0447H94.5213L93.5664 17.9254C93.3241 17.1467 93.1272 16.3726 92.974 15.6046H92.9443C92.8021 16.3939 92.6052 17.1665 92.352 17.9254L91.3377 21.0447H89.8201L87.6523 13.8613H89.3356L90.1686 17.2762C90.3702 18.0839 90.5359 18.8534 90.6687 19.5818H90.6984C90.8203 18.9814 91.022 18.2164 91.3064 17.2915L92.352 13.8629H93.6867L94.6885 17.2183C94.9308 18.0366 95.1277 18.8245 95.2793 19.5833H95.3246C95.4356 18.8443 95.6028 18.0564 95.8248 17.2183L96.7187 13.8629H98.327V13.8613Z" fill="white"/>
<path d="M106.819 21.0444H105.181V16.9301C105.181 15.6622 104.687 15.0283 103.697 15.0283C103.21 15.0283 102.818 15.202 102.513 15.551C102.212 15.9 102.059 16.3114 102.059 16.7823V21.0429H100.421V15.9137C100.421 15.2828 100.4 14.5986 100.361 13.858H101.801L101.877 14.9811H101.923C102.113 14.6321 102.398 14.3441 102.771 14.114C103.215 13.8458 103.712 13.7102 104.256 13.7102C104.944 13.7102 105.516 13.9266 105.971 14.3609C106.536 14.8927 106.819 15.6866 106.819 16.7411V21.0444Z" fill="white"/>
<path d="M111.336 21.0446H109.699V10.5652H111.336V21.0446Z" fill="white"/>
<path d="M120.976 17.3934C120.976 18.4982 120.652 19.4033 120.005 20.1134C119.327 20.8433 118.427 21.2075 117.306 21.2075C116.223 21.2075 115.362 20.8586 114.721 20.1576C114.08 19.4582 113.76 18.5759 113.76 17.5122C113.76 16.3998 114.09 15.4871 114.752 14.7785C115.415 14.0699 116.306 13.7148 117.426 13.7148C118.509 13.7148 119.377 14.0638 120.036 14.7632C120.662 15.4429 120.976 16.3206 120.976 17.3934ZM119.275 17.4452C119.275 16.7823 119.128 16.2139 118.836 15.74C118.494 15.1671 118.003 14.8806 117.369 14.8806C116.709 14.8806 116.209 15.1671 115.867 15.74C115.573 16.2139 115.427 16.7915 115.427 17.4741C115.427 18.137 115.574 18.7054 115.867 19.1793C116.221 19.7523 116.715 20.0387 117.353 20.0387C117.978 20.0387 118.467 19.7477 118.82 19.1641C119.125 18.681 119.275 18.1081 119.275 17.4452Z" fill="white"/>
<path d="M128.906 21.0445H127.435L127.313 20.217H127.268C126.765 20.8769 126.047 21.2075 125.116 21.2075C124.42 21.2075 123.858 20.9896 123.434 20.5568C123.05 20.1637 122.857 19.6746 122.857 19.094C122.857 18.2162 123.233 17.5473 123.987 17.084C124.741 16.6208 125.8 16.3937 127.165 16.4044V16.2703C127.165 15.324 126.655 14.8516 125.635 14.8516C124.908 14.8516 124.267 15.0299 123.714 15.3834L123.381 14.335C124.066 13.9221 124.911 13.7148 125.908 13.7148C127.834 13.7148 128.8 14.7053 128.8 16.6863V19.3317C128.8 20.0494 128.836 20.6209 128.906 21.0445ZM127.205 18.5759V17.468C125.399 17.4376 124.495 17.9206 124.495 18.9157C124.495 19.2905 124.598 19.5709 124.809 19.7584C125.02 19.9458 125.289 20.0387 125.61 20.0387C125.969 20.0387 126.305 19.9275 126.612 19.7066C126.919 19.4841 127.109 19.2022 127.179 18.8563C127.196 18.7785 127.205 18.6841 127.205 18.5759Z" fill="white"/>
<path d="M138.211 21.0446H136.757L136.681 19.891H136.635C136.171 20.7688 135.38 21.2076 134.269 21.2076C133.381 21.2076 132.642 20.8678 132.056 20.1882C131.47 19.5086 131.178 18.6263 131.178 17.5428C131.178 16.3801 131.495 15.4384 132.133 14.7192C132.75 14.0487 133.506 13.7134 134.407 13.7134C135.396 13.7134 136.088 14.038 136.482 14.6887H136.513V10.5652H138.153V19.1093C138.153 19.8088 138.172 20.4533 138.211 21.0446ZM136.513 18.0152V16.8175C136.513 16.6102 136.498 16.4426 136.468 16.3146C136.376 15.9306 136.177 15.6075 135.876 15.347C135.571 15.0864 135.204 14.9553 134.78 14.9553C134.169 14.9553 133.691 15.1915 133.339 15.6655C132.991 16.1394 132.814 16.7443 132.814 17.4834C132.814 18.1935 132.981 18.7695 133.317 19.2129C133.672 19.6853 134.15 19.9215 134.749 19.9215C135.287 19.9215 135.716 19.7249 136.043 19.3303C136.359 18.9661 136.513 18.5272 136.513 18.0152Z" fill="white"/>
<path d="M152.22 17.3934C152.22 18.4982 151.896 19.4033 151.249 20.1134C150.571 20.8433 149.674 21.2075 148.55 21.2075C147.47 21.2075 146.609 20.8586 145.965 20.1576C145.324 19.4582 145.004 18.5759 145.004 17.5122C145.004 16.3998 145.334 15.4871 145.996 14.7785C146.659 14.0699 147.55 13.7148 148.674 13.7148C149.754 13.7148 150.624 14.0638 151.281 14.7632C151.906 15.4429 152.22 16.3206 152.22 17.3934ZM150.523 17.4452C150.523 16.7823 150.376 16.2139 150.083 15.74C149.738 15.1671 149.25 14.8806 148.613 14.8806C147.956 14.8806 147.456 15.1671 147.111 15.74C146.817 16.2139 146.672 16.7915 146.672 17.4741C146.672 18.137 146.818 18.7054 147.111 19.1793C147.465 19.7523 147.959 20.0387 148.597 20.0387C149.222 20.0387 149.715 19.7477 150.068 19.1641C150.369 18.681 150.523 18.1081 150.523 17.4452Z" fill="white"/>
<path d="M161.029 21.0444H159.392V16.9301C159.392 15.6622 158.898 15.0283 157.906 15.0283C157.42 15.0283 157.028 15.202 156.724 15.551C156.421 15.9 156.27 16.3114 156.27 16.7823V21.0429H154.63V15.9137C154.63 15.2828 154.611 14.5986 154.572 13.858H156.01L156.087 14.9811H156.132C156.324 14.6321 156.609 14.3441 156.981 14.114C157.426 13.8458 157.922 13.7102 158.467 13.7102C159.153 13.7102 159.725 13.9266 160.18 14.3609C160.747 14.8927 161.029 15.6866 161.029 16.7411V21.0444Z" fill="white"/>
<path d="M172.052 15.0575H170.248V18.547C170.248 19.4339 170.568 19.8773 171.203 19.8773C171.497 19.8773 171.741 19.853 171.933 19.8027L171.975 21.0141C171.651 21.133 171.226 21.1924 170.703 21.1924C170.056 21.1924 169.552 21.0004 169.188 20.6164C168.823 20.2324 168.641 19.5863 168.641 18.6796V15.0575H167.564V13.8612H168.641V12.5447L170.246 12.0723V13.8597H172.05V15.0575H172.052Z" fill="white"/>
<path d="M180.721 21.0446H179.081V16.9607C179.081 15.6731 178.587 15.0285 177.598 15.0285C176.839 15.0285 176.32 15.4018 176.035 16.1485C175.987 16.3055 175.959 16.4975 175.959 16.723V21.0431H174.322V10.5652H175.959V14.8944H175.99C176.506 14.1066 177.245 13.7134 178.203 13.7134C178.881 13.7134 179.442 13.9298 179.888 14.3641C180.443 14.9051 180.721 15.7096 180.721 16.7733V21.0446Z" fill="white"/>
<path d="M189.665 17.113C189.665 17.3995 189.643 17.6403 189.604 17.8369H184.692C184.714 18.547 184.949 19.0879 185.403 19.4628C185.819 19.798 186.355 19.9656 187.012 19.9656C187.738 19.9656 188.401 19.8529 188.998 19.6258L189.254 20.7352C188.556 21.0308 187.734 21.1786 186.782 21.1786C185.641 21.1786 184.742 20.851 184.092 20.1957C183.439 19.5405 183.115 18.6612 183.115 17.558C183.115 16.4745 183.417 15.5724 184.025 14.8532C184.659 14.0852 185.517 13.7012 186.601 13.7012C187.66 13.7012 188.465 14.0852 189.009 14.8532C189.448 15.4627 189.665 16.217 189.665 17.113ZM188.102 16.7001C188.115 16.2262 188.007 15.8178 187.785 15.4734C187.501 15.03 187.068 14.8075 186.482 14.8075C185.947 14.8075 185.511 15.0239 185.178 15.4582C184.906 15.8041 184.745 16.217 184.692 16.7001H188.102Z" fill="white"/>
</svg>
