<svg width="14" height="25" viewBox="0 0 14 25" fill="none" xmlns="http://www.w3.org/2000/svg">
<path d="M3.03269 24.0077L13.3332 14.1377C13.5419 13.9378 13.7098 13.6874 13.825 13.4044C13.9403 13.1214 14 12.8126 14 12.5C14 12.1874 13.9403 11.8786 13.825 11.5956C13.7098 11.3126 13.5419 11.0622 13.3332 10.8623L3.03269 0.992328C2.76256 0.733656 2.43406 0.568909 2.0856 0.517363C1.73715 0.465817 1.38315 0.529601 1.06502 0.701253C0.746891 0.872906 0.477785 1.14533 0.28918 1.48666C0.100575 1.82798 0.000270449 2.2241 0 2.62867V22.3713C0.000270449 22.7759 0.100575 23.172 0.28918 23.5133C0.477785 23.8547 0.746891 24.1271 1.06502 24.2987C1.38315 24.4704 1.73715 24.5342 2.0856 24.4826C2.43406 24.4311 2.76256 24.2663 3.03269 24.0077Z" fill="white"/>
</svg>
